<?xml version="1.0" encoding="utf-8"?>
<!-- Generator: Adobe Illustrator 27.2.0, SVG Export Plug-In . SVG Version: 6.00 Build 0)  -->
<svg version="1.1" id="Layer_1" xmlns="http://www.w3.org/2000/svg" xmlns:xlink="http://www.w3.org/1999/xlink" x="0px" y="0px"
	 viewBox="0 0 841.9 328" style="enable-background:new 0 0 841.9 328;" xml:space="preserve">
<style type="text/css">
	.st0{fill:#001489;}
	.st1{fill:#FFFFFF;}
	.st2{fill:#8089C4;}
</style>
<g>
	<g>
		<path class="st0" d="M290,164V29.5H155.5C81.3,29.5,21,89.8,21,164s60.4,134.5,134.5,134.5S290,238.2,290,164"/>
		<path class="st1" d="M277.2,164c0,67.1-54.6,121.8-121.8,121.8S33.6,231.2,33.6,164c0-67.1,54.6-121.8,121.8-121.8h121.8V164z"/>
		<path class="st0" d="M177.8,237.6l0.2-2.1l1.3,1.6L177.8,237.6z M177,234.2l-0.8,6.5l1.3-0.4l0.2-1.4l2.4-0.7l0.9,1.1l1.3-0.4
			l-4.1-5.1L177,234.2z M169.7,235.9l-1.2,0.2l1.1,5.8l1.3-0.2l-0.7-3.7l3.6,3.2l1.1-0.2l-1.1-5.8l-1.3,0.2l0.7,3.6L169.7,235.9z
			 M162.7,239.8c0-0.2,0-0.5,0-0.7c0.1-0.2,0.2-0.4,0.3-0.6s0.3-0.3,0.5-0.5c0.2-0.1,0.4-0.2,0.7-0.2s0.5,0,0.7,0.1s0.4,0.2,0.6,0.3
			c0.2,0.2,0.3,0.3,0.4,0.5c0.1,0.2,0.2,0.5,0.2,0.7l0,0c0,0.3,0,0.5-0.1,0.7s-0.2,0.4-0.3,0.6s-0.3,0.3-0.5,0.5
			c-0.2,0.1-0.4,0.2-0.7,0.2s-0.5,0-0.7-0.1s-0.4-0.2-0.6-0.3c-0.2-0.2-0.3-0.3-0.4-0.6C162.8,240.3,162.8,240.1,162.7,239.8
			L162.7,239.8z M161.5,238.7c-0.1,0.4-0.2,0.8-0.1,1.2l0,0c0,0.4,0.2,0.8,0.4,1.2c0.2,0.4,0.5,0.7,0.8,0.9c0.3,0.2,0.7,0.4,1.1,0.5
			c0.4,0.1,0.8,0.2,1.3,0.1c0.5,0,0.9-0.2,1.2-0.4c0.4-0.2,0.7-0.5,0.9-0.8s0.4-0.7,0.6-1c0.1-0.4,0.2-0.8,0.1-1.2l0,0
			c0-0.4-0.2-0.8-0.4-1.2c-0.2-0.4-0.5-0.7-0.8-0.9c-0.3-0.2-0.7-0.4-1.1-0.5c-0.4-0.1-0.8-0.2-1.3-0.1c-0.5,0-0.9,0.2-1.2,0.4
			c-0.4,0.2-0.7,0.5-0.9,0.8C161.8,238,161.6,238.4,161.5,238.7 M157.8,238.3c0.3,0,0.5,0,0.6,0.1c0.2,0.1,0.2,0.3,0.2,0.5l0,0
			c0,0.2-0.1,0.4-0.2,0.5c-0.2,0.1-0.4,0.2-0.7,0.2h-1.2v-1.3L157.8,238.3z M156.5,240.6h1.5c0.3,0,0.6,0,0.7,0.2
			c0.2,0.1,0.2,0.3,0.2,0.5l0,0c0,0.2-0.1,0.4-0.2,0.5c-0.2,0.1-0.4,0.2-0.7,0.2h-1.6L156.5,240.6z M157.9,237.1l-2.8,0.1l0.2,6
			l2.8-0.1c0.3,0,0.6,0,0.9-0.1c0.3-0.1,0.5-0.2,0.7-0.3c0.2-0.1,0.3-0.3,0.4-0.5c0.1-0.2,0.1-0.4,0.1-0.7l0,0
			c0-0.4-0.1-0.7-0.3-0.9c-0.2-0.2-0.5-0.4-0.8-0.5c0.1-0.1,0.2-0.1,0.3-0.2s0.2-0.2,0.2-0.3c0.1-0.1,0.1-0.2,0.2-0.4
			c0-0.1,0.1-0.3,0-0.5l0,0c0-0.4-0.2-0.7-0.4-1C159.2,237.2,158.6,237.1,157.9,237.1 M147.1,240.9l-0.8,0.9
			c0.3,0.4,0.7,0.6,1.1,0.8c0.4,0.2,0.9,0.3,1.3,0.3c0.3,0,0.6,0,0.9-0.1c0.3-0.1,0.5-0.2,0.7-0.3c0.2-0.1,0.4-0.3,0.5-0.5
			s0.2-0.5,0.2-0.8l0,0c0-0.3,0-0.5-0.1-0.7s-0.2-0.4-0.3-0.5c-0.2-0.2-0.3-0.3-0.6-0.4c-0.2-0.1-0.5-0.2-0.8-0.3
			c-0.2-0.1-0.5-0.2-0.6-0.2c-0.2-0.1-0.3-0.1-0.4-0.2c-0.1-0.1-0.2-0.1-0.2-0.2s0-0.2,0-0.3l0,0c0-0.1,0.1-0.3,0.2-0.4
			c0.1-0.1,0.3-0.1,0.6-0.1s0.5,0.1,0.7,0.2s0.5,0.3,0.7,0.5l0.8-0.9c-0.3-0.3-0.6-0.5-1-0.6c-0.4-0.2-0.8-0.3-1.2-0.3
			c-0.3,0-0.6,0-0.8,0.1c-0.3,0.1-0.5,0.2-0.7,0.3c-0.2,0.1-0.4,0.3-0.5,0.5s-0.2,0.5-0.2,0.7l0,0c0,0.3,0,0.5,0.1,0.7
			s0.2,0.4,0.4,0.5s0.4,0.3,0.6,0.4c0.2,0.1,0.5,0.2,0.8,0.3c0.2,0.1,0.4,0.2,0.6,0.2c0.2,0.1,0.3,0.1,0.4,0.2
			c0.1,0.1,0.1,0.1,0.2,0.2c0,0.1,0,0.1,0,0.2l0,0c0,0.2-0.1,0.3-0.3,0.4s-0.4,0.1-0.6,0.1c-0.3,0-0.6-0.1-0.9-0.3
			C147.6,241.3,147.4,241.2,147.1,240.9 M141.4,235.9l-0.9,5.9l4.5,0.7l0.2-1.2l-3.2-0.5l0.2-1.2l2.8,0.4l0.2-1.2l-2.8-0.4l0.2-1.2
			l3.2,0.5l0.2-1.2L141.4,235.9z M136.4,238l0.4-1.8l1,0.2c0.3,0.1,0.6,0.2,0.7,0.4c0.2,0.2,0.2,0.4,0.1,0.7l0,0
			c-0.1,0.2-0.2,0.4-0.4,0.6c-0.2,0.1-0.5,0.2-0.8,0.1L136.4,238z M135.8,234.8l-1.3,5.8l1.3,0.3l0.4-1.7l1,0.2
			c0.3,0.1,0.6,0.1,0.9,0.1c0.3,0,0.6-0.1,0.8-0.2s0.5-0.3,0.6-0.5c0.2-0.2,0.3-0.5,0.4-0.8l0,0c0.1-0.3,0.1-0.6,0-0.9
			c0-0.3-0.1-0.5-0.3-0.7s-0.4-0.4-0.6-0.6c-0.3-0.2-0.6-0.3-0.9-0.4L135.8,234.8z M129.7,237.3l-1,0.7c0.2,0.4,0.6,0.8,0.9,1
			c0.4,0.3,0.8,0.5,1.2,0.6c0.3,0.1,0.6,0.1,0.9,0.1c0.3,0,0.5-0.1,0.8-0.1c0.2-0.1,0.4-0.2,0.6-0.4c0.2-0.2,0.3-0.4,0.4-0.7l0,0
			c0.1-0.2,0.1-0.5,0.1-0.7s-0.1-0.4-0.2-0.6c-0.1-0.2-0.3-0.3-0.5-0.5s-0.4-0.3-0.7-0.5c-0.2-0.1-0.4-0.3-0.6-0.4
			c-0.1-0.1-0.3-0.2-0.3-0.3c-0.1-0.1-0.1-0.2-0.1-0.2c0-0.1,0-0.2,0-0.3l0,0c0-0.1,0.1-0.2,0.3-0.3c0.2-0.1,0.3-0.1,0.6,0
			c0.2,0.1,0.5,0.2,0.7,0.4c0.2,0.2,0.4,0.4,0.6,0.6l0.9-0.7c-0.2-0.3-0.5-0.6-0.8-0.8c-0.3-0.2-0.7-0.4-1.1-0.5
			c-0.3-0.1-0.6-0.1-0.8-0.1c-0.3,0-0.5,0.1-0.7,0.2s-0.4,0.2-0.6,0.4c-0.2,0.2-0.3,0.4-0.4,0.7l0,0c-0.1,0.3-0.1,0.5-0.1,0.7
			s0.1,0.4,0.2,0.6c0.1,0.2,0.3,0.3,0.5,0.5s0.4,0.3,0.7,0.5c0.2,0.1,0.4,0.2,0.5,0.3c0.1,0.1,0.2,0.2,0.3,0.3
			c0.1,0.1,0.1,0.2,0.1,0.2c0,0.1,0,0.2,0,0.2l0,0c-0.1,0.2-0.2,0.3-0.3,0.3c-0.2,0-0.4,0-0.7,0c-0.3-0.1-0.6-0.2-0.8-0.5
			C130.1,237.9,129.9,237.6,129.7,237.3 M132.6,129.8v-0.3c0-0.8-0.7-1.5-1.5-1.5s-1.5,0.7-1.5,1.5v0.3c-0.4-0.4-0.7-1-0.7-1.6
			c0-1.2,1-2.2,2.2-2.2s2.2,1,2.2,2.2C133.3,128.8,133,129.4,132.6,129.8 M135.7,137.8l4.9-0.5v-2.5l-4.9-0.5l-3-0.3v-2.5
			c1.3-0.6,2.2-1.9,2.2-3.4c0-2-1.6-3.7-3.7-3.7c-2,0-3.7,1.6-3.7,3.7c0,1.5,0.9,2.8,2.2,3.4v2.5l-3,0.3l-4.9,0.5v2.5l4.9,0.5l3,0.3
			l-0.1,18.2c-2-0.9-4.6-2.9-7.3-5l2.6-0.5c-2.8-0.6-5.9-2.3-9-5c0.2,3.6,1.8,7.3,4.9,10.9l-0.1-3.6c4.7,6.1,10.2,8.3,10.6,10
			c0.4-1.8,5.9-4,10.6-10l-0.1,3.6c3.1-3.6,4.8-7.3,4.9-10.9c-3.2,2.6-6.2,4.4-9,5l2.6,0.5c-2.7,2.1-5.3,4.1-7.3,5l-0.1-18.2
			L135.7,137.8z M169.7,187.1c-0.4,0-0.7,0.1-1,0.2l2.5,3.8c0.5-0.4,0.8-1,0.8-1.7C172,188.2,171,187.1,169.7,187.1 M138.9,189.5
			c0,0.7,0.3,1.3,0.8,1.7l2.5-3.8c-0.3-0.1-0.6-0.2-1-0.2C139.9,187.1,138.9,188.2,138.9,189.5 M184.7,149.1c0,0.4-0.3,0.7-0.8,0.7
			c-0.4,0-0.7-0.3-0.7-0.7s0.3-0.7,0.7-0.7C184.4,148.3,184.7,148.7,184.7,149.1 M180.4,149.1c0,0.4-0.3,0.7-0.8,0.7
			c-0.4,0-0.7-0.3-0.7-0.7s0.3-0.7,0.7-0.7C180,148.3,180.4,148.7,180.4,149.1 M184.6,151.8c1.2,0,2.2-1,2.2-2.2s-1-2.2-2.2-2.2
			s-2.2,1-2.2,2.2c0-1.2-1-2.2-2.2-2.2s-2.2,1-2.2,2.2s1,2.2,2.2,2.2s2.2-1,2.2-2.2C182.4,150.8,183.4,151.8,184.6,151.8
			 M182.5,137.7c0,0.4-0.3,0.7-0.8,0.7c-0.4,0-0.7-0.3-0.7-0.7c0-0.4,0.3-0.8,0.7-0.8C182.2,137,182.5,137.3,182.5,137.7
			 M178.2,137.7c0,0.4-0.3,0.7-0.8,0.7c-0.4,0-0.7-0.3-0.7-0.7c0-0.4,0.3-0.8,0.7-0.8C177.8,137,178.2,137.3,178.2,137.7
			 M182.3,140.5c1.2,0,2.2-1,2.2-2.2s-1-2.2-2.2-2.2s-2.2,1-2.2,2.2c0-1.2-1-2.2-2.2-2.2s-2.2,1-2.2,2.2s1,2.2,2.2,2.2
			s2.2-1,2.2-2.2C180.2,139.5,181.2,140.5,182.3,140.5 M184.7,141.5c0,0.4-0.3,0.7-0.8,0.7c-0.4,0-0.7-0.3-0.7-0.7
			c0-0.4,0.3-0.8,0.7-0.8C184.4,140.8,184.7,141.1,184.7,141.5 M184.6,139.9c-1.2,0-2.2,1-2.2,2.2s1,2.2,2.2,2.2s2.2-1,2.2-2.2
			C186.7,140.8,185.8,139.9,184.6,139.9 M171.6,141.5c0,0.4-0.3,0.7-0.8,0.7c-0.4,0-0.7-0.3-0.7-0.7c0-0.4,0.3-0.8,0.7-0.8
			C171.3,140.8,171.6,141.1,171.6,141.5 M173.6,142c0-1.2-1-2.2-2.2-2.2s-2.2,1-2.2,2.2s1,2.2,2.2,2.2S173.6,143.3,173.6,142
			 M176,141.5c0,0.4-0.3,0.7-0.8,0.7c-0.4,0-0.7-0.3-0.7-0.7c0-0.4,0.3-0.8,0.7-0.8C175.7,140.8,176,141.1,176,141.5 M178,142
			c0-1.2-1-2.2-2.2-2.2s-2.2,1-2.2,2.2s1,2.2,2.2,2.2S178,143.3,178,142 M180.4,141.5c0,0.4-0.3,0.7-0.8,0.7c-0.4,0-0.7-0.3-0.7-0.7
			c0-0.4,0.3-0.8,0.7-0.8C180,140.8,180.4,141.1,180.4,141.5 M182.4,142c0-1.2-1-2.2-2.2-2.2s-2.2,1-2.2,2.2s1,2.2,2.2,2.2
			S182.4,143.3,182.4,142 M173.8,137.7c0,0.4-0.3,0.7-0.8,0.7c-0.4,0-0.7-0.3-0.7-0.7c0-0.4,0.3-0.8,0.7-0.8
			C173.5,137,173.8,137.3,173.8,137.7 M173.6,140.5c1.2,0,2.2-1,2.2-2.2s-1-2.2-2.2-2.2s-2.2,1-2.2,2.2
			C171.4,139.5,172.4,140.5,173.6,140.5 M173.8,145.3c0,0.4-0.3,0.8-0.8,0.8c-0.4,0-0.7-0.3-0.7-0.8c0-0.4,0.3-0.7,0.7-0.7
			C173.5,144.5,173.8,144.9,173.8,145.3 M176.7,145.3c0-0.4,0.3-0.7,0.7-0.7s0.8,0.3,0.8,0.7c0,0.4-0.3,0.8-0.8,0.8
			C177,146.1,176.7,145.7,176.7,145.3 M173.6,143.6c-1.2,0-2.2,1-2.2,2.2s1,2.2,2.2,2.2s2.2-1,2.2-2.2c0,1.2,1,2.2,2.2,2.2
			s2.2-1,2.2-2.2s-1-2.2-2.2-2.2s-2.2,1-2.2,2.2C175.8,144.6,174.8,143.6,173.6,143.6 M176.7,160.4c0-0.4,0.3-0.8,0.7-0.8
			s0.8,0.3,0.8,0.8c0,0.4-0.3,0.7-0.8,0.7C177,161.2,176.7,160.9,176.7,160.4 M175.8,161c0,1.2,1,2.2,2.2,2.2s2.2-1,2.2-2.2
			s-1-2.2-2.2-2.2S175.8,159.8,175.8,161 M178.9,156.7c0-0.4,0.3-0.8,0.7-0.8s0.8,0.3,0.8,0.8s-0.3,0.7-0.8,0.7
			C179.2,157.4,178.9,157.1,178.9,156.7 M178,157.2c0,1.2,1,2.2,2.2,2.2s2.2-1,2.2-2.2s-1-2.2-2.2-2.2S178,156,178,157.2
			 M174.5,156.7c0-0.4,0.3-0.8,0.7-0.8s0.8,0.3,0.8,0.8s-0.3,0.7-0.8,0.7C174.8,157.4,174.5,157.1,174.5,156.7 M173.6,157.2
			c0,1.2,1,2.2,2.2,2.2s2.2-1,2.2-2.2s-1-2.2-2.2-2.2S173.6,156,173.6,157.2 M181.1,152.9c0-0.4,0.3-0.7,0.7-0.7s0.8,0.3,0.8,0.7
			s-0.3,0.7-0.8,0.7C181.4,153.6,181.1,153.3,181.1,152.9 M180.2,153.4c0,1.2,1,2.2,2.2,2.2s2.2-1,2.2-2.2s-1-2.2-2.2-2.2
			S180.2,152.2,180.2,153.4 M176.7,152.9c0-0.4,0.3-0.7,0.7-0.7s0.8,0.3,0.8,0.7s-0.3,0.7-0.8,0.7
			C177,153.6,176.7,153.3,176.7,152.9 M175.8,153.4c0,1.2,1,2.2,2.2,2.2s2.2-1,2.2-2.2s-1-2.2-2.2-2.2S175.8,152.2,175.8,153.4
			 M172.3,152.9c0-0.4,0.3-0.7,0.7-0.7s0.8,0.3,0.8,0.7s-0.3,0.7-0.8,0.7C172.6,153.6,172.3,153.3,172.3,152.9 M171.4,153.4
			c0,1.2,1,2.2,2.2,2.2s2.2-1,2.2-2.2s-1-2.2-2.2-2.2C172.4,151.2,171.4,152.2,171.4,153.4 M170.1,149.1c0-0.4,0.3-0.7,0.7-0.7
			s0.8,0.3,0.8,0.7s-0.3,0.7-0.8,0.7C170.5,149.8,170.1,149.5,170.1,149.1 M174.5,149.1c0-0.4,0.3-0.7,0.7-0.7s0.8,0.3,0.8,0.7
			s-0.3,0.7-0.8,0.7C174.8,149.8,174.5,149.5,174.5,149.1 M169.2,149.6c0,1.2,1,2.2,2.2,2.2s2.2-1,2.2-2.2c0,1.2,1,2.2,2.2,2.2
			s2.2-1,2.2-2.2s-1-2.2-2.2-2.2s-2.2,1-2.2,2.2c0-1.2-1-2.2-2.2-2.2S169.2,148.4,169.2,149.6 M167.9,145.3c0-0.4,0.3-0.7,0.7-0.7
			s0.8,0.3,0.8,0.7c0,0.4-0.3,0.8-0.8,0.8C168.3,146.1,167.9,145.7,167.9,145.3 M167.1,145.8c0,1.2,1,2.2,2.2,2.2s2.2-1,2.2-2.2
			s-1-2.2-2.2-2.2C168,143.6,167.1,144.6,167.1,145.8 M187.6,142.8c1.1,0.3,1.9,1.2,2.2,2.3c1.4,0.1,3.1,0.2,3.2,0.2
			c0,0,0.5-3.5,0.4-5c-0.3-2.7-2.4-4.3-2.4-4.3l2.7-0.2c-0.7-3.5-2.8-4.8-6.4-4c0.4-0.8,1.4-1.3,2.8-1.4c-1.8-2.7-4.7-3-7.2-2.2
			c-2.2,0.7-3.5,2.4-4.1,3.8c0.1-2.3,0.8-5,3.6-5.7l-0.3-1.5c-2.8,0.7-4.5,3.1-4.7,6.7c-0.7-1.3-1.9-2.8-3.9-3.4
			c-2.5-0.7-5.5-0.5-7.2,2.2c1.5,0.1,2.4,0.5,2.8,1.4c-3.6-0.8-5.7,0.5-6.4,4l2.7,0.2c0,0-2.1,1.5-2.4,4.3c-0.2,1.5,0.4,5,0.4,5
			c0.2,0,1.5-0.1,2.7-0.2c0.3-1.1,1.1-2,2.2-2.3c-0.1-0.2-0.1-0.5-0.1-0.7c0-1.4,1-2.7,2.3-3c-0.1-0.2-0.1-0.5-0.1-0.7
			c0-1.8,1.4-3.2,3.2-3.2c0.8,0,1.6,0.3,2.2,0.9c0.6-0.5,1.3-0.9,2.2-0.9s1.6,0.3,2.2,0.9c0.6-0.5,1.3-0.9,2.2-0.9
			c1.8,0,3.2,1.4,3.2,3.2c0,0.3,0,0.5-0.1,0.7c1.3,0.4,2.3,1.6,2.3,3C187.7,142.3,187.7,142.5,187.6,142.8 M186.9,145.3
			c0,0.4-0.3,0.8-0.8,0.8c-0.4,0-0.7-0.3-0.7-0.8c0-0.4,0.3-0.7,0.7-0.7C186.6,144.5,186.9,144.9,186.9,145.3 M182.6,145.3
			c0,0.4-0.3,0.8-0.8,0.8c-0.4,0-0.7-0.3-0.7-0.8c0-0.4,0.3-0.7,0.7-0.7C182.2,144.5,182.6,144.9,182.6,145.3 M186.7,148
			c1.2,0,2.2-1,2.2-2.2s-1-2.2-2.2-2.2s-2.2,1-2.2,2.2c0-1.2-1-2.2-2.2-2.2s-2.2,1-2.2,2.2s1,2.2,2.2,2.2s2.2-1,2.2-2.2
			C184.6,147.1,185.5,148,186.7,148 M219,107.7c0-0.4,0.4-0.5,0.4-0.9c0-0.1-0.1-0.3-0.3-0.3c-1.1,0.1-1.1,1.4-1.9,2.3
			c0,0,0.5-0.3,0.9-0.3s0.6,0.2,1-0.1C219.4,108.2,219,108,219,107.7 M247.7,160.9c0.2,3.1,0,6-0.7,8.6l-0.1,0.4
			c-0.6,2.2-1.5,3.9-2.2,5.4c-0.3,0.6-0.6,1.2-0.8,1.8c-6.5-6.1,2-12.2,2.5-20.5C247.1,158,247.6,159.5,247.7,160.9 M246.3,192.9
			c0,0,0,0.1-0.1,0.1c-3.4,7.8-5,17.5-5,17.5s0.8,1,0.3,2.2c-0.4,1-1.2,1.1-1.2,1.1l-1,3.7c-0.6-0.2-1.2-0.5-1.8-0.7
			c0,0-0.1,0-0.1-0.1c-0.2-0.1-0.5-0.2-0.7-0.4c-0.1,0-0.1,0-0.2-0.1c-0.3-0.1-0.5-0.3-0.8-0.4l0,0l1.7-2.3
			c-0.2-2.1,2.2-3.8,2.2-3.8c0.5-1.2,0.9-2.1,1.1-3.2c0.2-0.7,0.4-1.5,0.5-2.5c0.7-5.4,0.5-11.4-0.5-14.5c0-0.1-0.1-0.1-0.1-0.2
			C241.9,187,246.6,187.6,246.3,192.9 M240,204.2c-0.3,2.1-0.5,3.2-1.3,5.1l-0.3,0.1c-0.4,0.3-2.3,1.1-2,3.8
			c-0.6,0.6-1.2,1.3-1.8,2.1c-0.3-0.2-0.6-0.4-0.9-0.7c-1.2-0.9-2.5-2.1-3.3-3.3c-0.4-0.5-0.7-0.9-1-1.4l-4.2-6.7l-7.7,12.4
			l-7.2-11.6l0.8-2.8c0.8-0.1,1.4-0.5,1.7-1.2s0.2-1.5-0.2-2.1c2.7-5.6,7.3-10.4,10.3-12.1c2-1.2,2.4-2.4,2.5-3.3
			c0-1.2-0.6-2.3-1.9-3.1c-0.9-0.6-1.2-1.2-1.2-1.8c0.1-0.9,1.3-1.9,2.3-2.3c0.9-0.3,2.1-1.1,2.9-1.7c-0.2,2.8,0.7,6.4,2.8,9.9
			c1.6,2.7,5.1,4.5,7.4,5.8c0.9,0.5,2,1,2.1,1.2C240.9,193.3,240.8,198.9,240,204.2 M232.4,166.2c-0.6-1.1-1.7-2.5-3.5-4.1
			c1.3-5.4-3.2-9-7.6-12.4c-2.8-2.2-5.6-2.9-7.6-6.1c2.7-1.7,5.9-3.3,9.5-3.5c0.4,6.1,5.6,8.6,11,14.7
			C236.3,157.4,237,160.8,232.4,166.2 M233.4,100.3c0,0-0.7,1.8-1.7,2.5c-0.9,0.5-2.1,0.5-2.6,0.5c0.2-0.6,0.3-1.8,1.1-2.5
			C231.1,100,233.4,100.3,233.4,100.3 M230.3,95.2c-1.8,3.3-0.5,6.9-3.6,7.1c-2.9,0.2-3.6,9-7.5,9.5c-0.2,0-0.5,0-0.7-0.2
			c-0.3-0.2-0.5-0.5-0.5-0.6c0.5-0.2,1.1-0.5,1.8-0.9c0.1,0.1,0.2,0.2,0.4,0.2c0.3,0,0.4-0.3,0.4-0.5s-0.3-0.4-0.5-0.4
			c-0.1,0-0.3,0.1-0.3,0.1c-0.8,0.5-1.4,0.8-2,1l0,0c0,0-1.1,0.6-1.7-0.1c-0.6-0.7,0.7-1.2,0.7-1.2s-1.1-0.3-0.8-1.4
			c0.2-0.7,1.5-1.6,3-2.6c1.3-0.8,2.7-1.7,3.8-2.9l0.3-0.3c1.8-1.8,3.5-3.5,4.3-5.3C227.6,96.2,228.6,95.5,230.3,95.2 M230.1,127.3
			c-3.8,1.4,0.9,10.9-7.1,11.8l0,0c-3.6,0.2-5.7,1.3-8.5,2.9l0,0l0,0c-0.2,0.1-0.3,0.2-0.5,0.3c-1.3,0.7-3,1.3-4.5,1.9
			c0-1.1,0.9-2.9,2.4-4.5c0.6-0.6,1.3-1.2,2-1.7c1.5-1,3.4-1.7,5.5-1.8C225.1,135.9,224.6,128.3,230.1,127.3 M208.1,136.7
			c-2.4,2.8-3.5,3.5-7.4,6v-17.1l0,0V123l7.4,8.7C208.2,132.8,207.3,133.8,208.1,136.7 M200.7,155.5v-3.7l0,0v-1.3
			c2.2,2.7,5.2,5.7,5.5,6.4c1.4,3.9,4,6.3,7.7,7.1l0.7,0.2l-0.4-6l-0.6,0.2c-0.2,0.1-0.4,0.1-0.6,0.1c-1.2,0.1-2-0.4-2.1-0.5
			c0-0.2,0-0.5,0.1-0.8c0.1-0.7,0.3-1.6-0.3-2.4c-0.5-0.6-1.2-0.5-1.6-0.5c-0.4,0-0.7,0-0.8-0.1c-0.8-0.7-3.7-5.2-3.9-6.7
			c0.4-0.4,2.3-1.1,3.8-1.7c1.4-0.6,3-1.2,4.4-1.8c1.1,2.6,5.3,4.7,8.1,6.9c1.4,1,2.8,2.1,4,3.3l0.1,0.8c0.2,2.8-3.8,6.8-7.7,10.6
			c-0.9,0.9-1.8,1.8-2.7,2.7c-4.9,5-3.3,8.9-1.9,12.2c0.6,1.4,1.1,2.8,1.2,4.2c0.2,3.9-3.7,10.4-6.3,14.6c-0.4,0.7-0.8,1.3-1.1,1.8
			l-1.4,2h-5.5h-13.5c-7.6,10-17.3,18.7-28.6,25.4l-1.7,1l-1.7-1c-11.2-6.7-21-15.3-28.6-25.4h-13.8v-0.2c-0.4-1.2-2-2.7-3.6-4.1
			l-0.1-0.1c-0.3-0.8-0.5-1.6-0.7-2.3c-0.3-1.6-0.7-3-2.3-4.7c-1.1-1.1-2.9-1.8-4.8-2.5c-3-1.2-6.4-2.4-8-5.4
			c-0.4-0.8,1.3-3.2,2.8-5.3c1.3-1.8,2.7-3.8,3.6-5.7c2.1-4.4,2.3-8.1,0.6-10.7c-1.6-2.5-4.7-3.9-9.1-4c0.2-0.3,0.5-0.6,0.9-1
			c1.5-1.5,2.9-2.7,4.3-3.9c3.3-2.8,6.1-5.3,7.6-9.3c0.9,0,5-0.2,5-0.2s0.8,7,0.5,8.1c-1,0.1-1.9,0.5-2.6,1.1
			c-0.4,0.5-0.7,1-0.7,1.5v0.1c0,0.6,0,1-0.3,1.3c-0.1,0.1-4.2,0.7-4.2,0.7l0.7,8.3c0.2,0.3,1.2,0.4,1.2,0.4l2.9-3.2
			c2.6-0.2,4.1-3.2,4.2-5.6l1.1,0.4c0.2,13.2,4.4,26.6,12.1,38.8c7.9,12.5,19.1,23.3,32.4,31.2l0.7,0.4l0.7-0.4
			c13.3-7.9,24.6-18.7,32.4-31.2C196.5,182.8,200.7,169,200.7,155.5 M198.3,155.5c0,13.1-4,26.2-11.3,38
			c-17.4-16.8-29-42.8-30.4-72.3h38.2h3.5v1.1V155.5z M155.4,103.4c-10,0-19.8,2-28.9,6h-0.1c-0.1,0-0.2-0.1-0.3-0.1l0,0H126
			c-0.2-0.1-0.4-0.2-0.5-0.5v-0.1v-0.2c0-0.3,0.1-0.5,0.2-0.6s0.2-0.2,0.3-0.2l0.5-0.2v-0.1c9.1-3.9,18.8-5.9,28.8-5.9
			s19.7,2,28.9,5.9v0.1l0.5,0.2c0.1,0.1,0.2,0.1,0.3,0.2s0.2,0.3,0.2,0.6v0.2v0.1c-0.1,0.2-0.3,0.4-0.5,0.5h-0.1l0,0
			c-0.1,0-0.2,0.1-0.3,0.1h-0.1C175.2,105.4,165.5,103.4,155.4,103.4 M184.7,106.3c-9.2-4-19.1-6-29.2-6c-10.1,0-20,2-29.2,6
			l-0.7-1.8l-1-2.2c0.3,0.2,0.6,0.4,0.9,0.6l0.1,0.1c0.1,0.1,0.3,0.1,0.4,0.2c0.1,0,0.2,0.1,0.2,0.1c0.1,0,0.2,0.1,0.3,0.1h0.1
			c0.2,0,0.4,0.1,0.6,0.1c0.1,0,0.1,0,0.2,0s0.3,0,0.4,0c0.2,0,0.4,0,0.6,0h0.1h0.1c0.1,0,0.2,0,0.4,0c0.6-0.1,1.1-0.3,1.6-0.5
			c1.2-0.6,2.2-1.7,2.7-3c0.2-0.6,0.4-1.3,0.4-1.9c0-0.3,0-0.7-0.1-1v0.1v0.1c0,0,0,0.1,0.1,0.2s0.1,0.2,0.2,0.4L134,98
			c0.1,0.1,0.1,0.2,0.2,0.3l0.1,0.1c0.1,0.1,0.2,0.2,0.3,0.3l0,0c0.1,0.1,0.2,0.2,0.3,0.3l0,0c0.1,0.1,0.2,0.2,0.3,0.3l0,0
			c0.1,0.1,0.2,0.2,0.4,0.3l0,0c1.2,0.7,2.6,1,4,0.8c1.1-0.2,2.1-0.7,2.9-1.5l0,0c0.4-0.3,0.7-0.7,0.9-1.2l0.1-0.1
			c0.1-0.2,0.2-0.4,0.3-0.6l0.1-0.1c0.1-0.2,0.1-0.4,0.2-0.6v-0.1c0.1-0.2,0.2-0.3,0.3-0.5c0.1,0.1,0.2,0.3,0.3,0.4l0.1,0.2
			c0.1,0.1,0.1,0.2,0.2,0.3l0.1,0.1c0.1,0.1,0.1,0.2,0.2,0.3l0.1,0.1c0.1,0.1,0.2,0.2,0.3,0.3v0.1c0.1,0.1,0.2,0.2,0.4,0.3l0.1,0.1
			c0.1,0.1,0.2,0.1,0.2,0.2c0.1,0,0.1,0.1,0.2,0.1c0.1,0,0.1,0.1,0.2,0.1c0.1,0,0.2,0.1,0.2,0.1c0.1,0,0.1,0.1,0.2,0.1
			c0.1,0,0.2,0.1,0.3,0.1l0,0c1,0.4,2.1,0.5,3.1,0.3c0.5-0.1,1-0.2,1.4-0.4h0.1c0.1,0,0.2-0.1,0.3-0.2c0,0,0.1,0,0.1-0.1
			c0.1,0,0.2-0.1,0.2-0.2c0.1,0,0.2-0.1,0.2-0.2c0.1,0,0.1-0.1,0.2-0.1c0.1-0.1,0.2-0.2,0.3-0.3l0.1-0.1c0.1-0.1,0.2-0.2,0.3-0.3
			l0,0c0.5-0.6,1-1.4,1.2-2.2c0.2,0.8,0.7,1.6,1.2,2.2l0,0c0.1,0.1,0.2,0.2,0.3,0.3l0.1,0.1c0.1,0.1,0.2,0.2,0.3,0.3
			c0.1,0,0.1,0.1,0.2,0.1c0.1,0.1,0.2,0.1,0.2,0.2c0.1,0.1,0.2,0.1,0.2,0.2c0,0,0.1,0,0.1,0.1c0.1,0.1,0.2,0.1,0.3,0.2h0.1
			c0.4,0.2,0.9,0.4,1.4,0.4c1,0.2,2.1,0.1,3.1-0.3l0,0c0.1,0,0.2-0.1,0.3-0.1s0.1,0,0.2-0.1c0.1,0,0.2-0.1,0.2-0.1
			c0.1,0,0.1-0.1,0.2-0.1c0.1,0,0.1-0.1,0.2-0.1c0.1-0.1,0.2-0.1,0.2-0.2c0.1,0,0.1-0.1,0.1-0.1c0.1-0.1,0.2-0.2,0.4-0.3v-0.1
			c0.1-0.1,0.2-0.2,0.3-0.3l0.1-0.1c0.1-0.1,0.2-0.2,0.2-0.3l0.1-0.1c0.1-0.1,0.1-0.2,0.2-0.3l0.1-0.2c0.1-0.1,0.2-0.2,0.3-0.4
			c0.1,0.2,0.2,0.4,0.3,0.5v0.1c0,0.2,0.1,0.4,0.2,0.6l0.1,0.1c0.1,0.2,0.2,0.4,0.3,0.6l0.1,0.1c0.3,0.4,0.6,0.8,0.9,1.2l0,0
			c0.8,0.8,1.8,1.3,2.9,1.5c1.4,0.2,2.8,0,4-0.8l0,0c0.1-0.1,0.3-0.2,0.4-0.3l0,0c0.1-0.1,0.2-0.2,0.3-0.3l0,0
			c0.1-0.1,0.2-0.2,0.3-0.3l0,0c0.1-0.1,0.2-0.2,0.3-0.3l0.1-0.1c0.1-0.1,0.2-0.2,0.2-0.3l0.1-0.1c0.1-0.1,0.1-0.2,0.2-0.4
			c0,0,0-0.1,0.1-0.2v-0.1v-0.1c-0.1,0.3-0.1,0.7-0.1,1c0,0.7,0.2,1.3,0.4,1.9c0.5,1.3,1.5,2.3,2.7,3c0.5,0.3,1.1,0.4,1.6,0.5
			c0.1,0,0.2,0,0.4,0h0.1h0.1c0.2,0,0.5,0,0.6,0s0.3,0,0.4,0c0.1,0,0.1,0,0.2,0c0.2,0,0.4-0.1,0.6-0.1h0.1c0.1,0,0.2,0,0.3-0.1
			c0.1,0,0.2-0.1,0.2-0.1c0.1-0.1,0.3-0.1,0.4-0.2l0.1-0.1c0.3-0.2,0.7-0.4,0.9-0.6l-1,2.2L184.7,106.3z M176,92.2
			c0-1.4,1.1-2.5,2.5-2.5s2.5,1.1,2.5,2.5s-1.1,2.5-2.5,2.5C177.2,94.7,176,93.6,176,92.2 M166.5,86.7h-0.1c-1-0.5-1.7-1.4-1.9-2.4
			c-0.2,0.6-0.3,1.3-0.3,2.1c-0.6-0.3-1.2-0.8-1.5-1.4c0,0,0,0,0-0.1l0.7-0.5c0.3-0.2,0.6-0.4,0.9-0.7c1.6-1.2,2.7-2.3,4.2-4.2
			c0.3,0.7,0.5,1.3,0.8,1.9c0.1,0.2,0.2,0.3,0.2,0.4c0,0,0,0,0,0.1c0.1,0.1,0.1,0.2,0.2,0.4v0.1c0.1,0.1,0.1,0.2,0.2,0.4l0.1,0.1
			c0.1,0.1,0.1,0.2,0.2,0.3v0.1c0.1,0.1,0.1,0.2,0.2,0.3l0.1,0.1c0.1,0.1,0.2,0.2,0.2,0.3v0.1l0.3,0.4c0.1,0.1,0.2,0.2,0.3,0.4
			c0.2,0.3,0.5,0.6,0.7,0.9l0.4,0.6c0,0,0,0,0,0.1c-0.5,0.5-1.1,0.8-1.8,1c0.2-0.7,0.2-1.4,0.2-2.1c-0.4,0.9-1.3,1.6-2.4,1.8
			c0,0-0.1,0-0.1-0.1c-0.1-1-0.3-1.9-0.6-2.7C167.3,84.9,166.8,85.7,166.5,86.7 M155.4,91.6c-1.4,0-2.5-1.1-2.5-2.5s1.1-2.5,2.5-2.5
			s2.5,1.1,2.5,2.5S156.8,91.6,155.4,91.6 M144.5,86.7h-0.1c-0.3-0.9-0.8-1.8-1.3-2.4c-0.3,0.8-0.5,1.7-0.6,2.7c0,0-0.1,0-0.1,0.1
			c-1.1-0.2-2-0.9-2.4-1.8c0,0.6,0.1,1.3,0.2,2.1c-0.7-0.1-1.3-0.5-1.8-1c0,0,0,0,0-0.1l0.4-0.6c0.2-0.3,0.5-0.6,0.7-0.9
			c0.1-0.1,0.2-0.2,0.3-0.4l0.3-0.4v-0.1c0.1-0.1,0.2-0.2,0.2-0.3l0.1-0.1c0.1-0.1,0.2-0.2,0.2-0.3v-0.1c0.1-0.1,0.1-0.2,0.2-0.3
			l0.1-0.1c0.1-0.1,0.1-0.2,0.2-0.4v-0.1c0.1-0.1,0.1-0.3,0.2-0.4v-0.1c0.1-0.1,0.1-0.3,0.2-0.4c0.3-0.6,0.5-1.2,0.8-1.9
			c1.4,2,2.6,3,4.2,4.2c0.3,0.2,0.6,0.4,0.9,0.7l0.7,0.5c0,0,0,0,0,0.1c-0.3,0.6-0.8,1.1-1.5,1.4c0-0.7-0.1-1.4-0.3-2.1
			C146.3,85.3,145.5,86.2,144.5,86.7 M132.4,94.7c-1.4,0-2.5-1.1-2.5-2.5s1.1-2.5,2.5-2.5s2.5,1.1,2.5,2.5S133.8,94.7,132.4,94.7
			 M175.3,118.7h-39.7c6.3-2.2,13-3.3,19.8-3.3C162.3,115.4,169,116.5,175.3,118.7 M130.4,116c0-0.2,0-0.4,0-0.5v-0.1
			c0-0.1,0-0.3,0-0.4v-0.1v-0.1c0-0.1,0-0.2-0.1-0.4v-0.2c0-0.1-0.1-0.2-0.1-0.4v-0.2c0-0.1-0.1-0.2-0.1-0.4l-0.1-0.1
			c0-0.1-0.1-0.2-0.1-0.3c0,0,0-0.1-0.1-0.1c-0.1-0.1-0.1-0.2-0.2-0.4l-0.1-0.1c0,0-0.1-0.1-0.1-0.2l4,3.1c-1,0.4-2,0.8-3,1.2
			C130.4,116.3,130.4,116.2,130.4,116 M133.7,115.2l2-8.1c0.1,0,0.1,0,0.2-0.1l6,5.8C139.1,113.4,136.4,114.2,133.7,115.2
			 M142.3,112.8l3.1-7.7c0.1,0,0.2,0,0.3,0l5.2,6.5C148,111.8,145.1,112.2,142.3,112.8 M155.4,111.4c-1.5,0-2.9,0-4.4,0.1l4.3-7.2
			h0.1h0.1l4.3,7.2C158.4,111.5,156.9,111.4,155.4,111.4 M160,111.6l5.2-6.5c0.1,0,0.2,0,0.3,0l3.1,7.7
			C165.8,112.2,162.9,111.8,160,111.6 M169,112.8l6-5.8c0.1,0,0.1,0,0.2,0.1l2,8.1C174.5,114.2,171.8,113.4,169,112.8 M180.9,118.4
			c0,0.1,0,0.2-0.1,0.3h-2.6c-7.2-2.9-14.8-4.3-22.7-4.3s-15.5,1.5-22.7,4.3h-2.6c0-0.1-0.1-0.2-0.1-0.3c0-0.1,0-0.2,0.1-0.3V118
			c0-0.1,0-0.2,0.1-0.3c0.1-0.1,0.2-0.2,0.3-0.3c7.9-3.4,16.3-5.1,24.9-5.1c8.7,0,17,1.7,24.9,5.1c0.1,0.1,0.2,0.2,0.3,0.3
			c0,0.1,0,0.2,0.1,0.3v0.1C180.8,118.2,180.9,118.3,180.9,118.4 M180.5,116c0,0.2,0,0.3,0,0.5c-1-0.4-2-0.8-3-1.2l4-3.1
			c0,0-0.1,0.1-0.1,0.2l-0.1,0.1c-0.1,0.1-0.1,0.2-0.2,0.4c0,0,0,0.1-0.1,0.1c0,0.1-0.1,0.2-0.1,0.3l-0.1,0.1c0,0.1-0.1,0.2-0.1,0.4
			v0.2c0,0.1-0.1,0.2-0.1,0.4v0.2c0,0.1,0,0.2-0.1,0.4v0.1v0.1c0,0.1,0,0.2,0,0.4v0.1C180.5,115.7,180.5,115.9,180.5,116
			 M165.3,180.4h-19.7l-1.2-2.2h22.1L165.3,180.4z M138.4,193.1c-1.1-0.8-1.8-2.2-1.8-3.6c0-2.5,2.1-4.6,4.6-4.6
			c0.8,0,1.6,0.2,2.2,0.6l2.1-3.2h19.8l2.1,3.2c0.7-0.4,1.4-0.6,2.2-0.6c2.5,0,4.6,2.1,4.6,4.6c0,1.5-0.7,2.8-1.8,3.6l0.9,1.4
			c0.6,0.9,0.7,1.4-0.4,2.7c-0.8,0.9-1.6,1.9-2.4,2.9c-4.1,5-8.7,10.8-14.2,15.9c-0.5,0.6-1.5,0.6-2.1,0
			c-5.5-5.1-10.1-10.8-14.2-15.9c-0.8-1-1.6-2-2.4-2.9c-1.1-1.3-0.9-1.8-0.4-2.7L138.4,193.1z M154.3,121.2
			c-1.4,29.5-13,55.4-30.4,72.3c-7.2-11.8-11.3-24.9-11.3-38v-31v-3.3h6.7H154.3z M119,118.6h-9v8c-1,2.4-2.8,5.3-5.5,8.6
			c-0.3-0.2-0.6-0.3-0.9-0.5c0.3-2.8-0.5-5.7-1.4-7.7h0.1c2-1.5,5.1-5.7,7.2-8.5c0.8-1.1,1.6-2.1,1.8-2.3c0.3-0.3,0.8-0.5,1.2-0.5
			c0.3,0,0.7,0.1,0.9,0.3l0.8,0.6l0.6-0.8c0.2-0.3,0.7-0.5,1.2-0.5c1.3,0,1.9,1.4,2.7,2.8C118.8,118.2,118.9,118.4,119,118.6
			 M102.7,134.2c-0.4-0.3-0.9-0.6-1.1-0.9c-0.2-0.2-0.6-0.6-1.1-1c-1-0.9-3.6-3.1-3.8-3.9c0,0,1.6-4.1-4.7-9.9
			C103.4,124.6,102.7,134.2,102.7,134.2 M108.2,136.6c-0.7-0.2-1.3-0.2-2.3-0.7c2-2.6,3.3-4.5,4.4-6.5v8.1
			C109.6,137.1,108.9,136.7,108.2,136.6 M95.5,136c1.3-1.3-1.2-6.3-0.6-8.1c0.6,0.9,1.5,2.3,4.1,4.6c0.5,0.4,0.9,0.8,1.1,1
			c0.7,0.7,1.9,1.5,3,2.1l0,0l0.2,0.1c1.5,0.7,3,1.6,4,1.6c1.4,0,2.9,0.9,2.9,1.6V154l-2.1,1.1v0.3c0,1.5-0.7,3.6-2,4.5
			c-0.4,0.3-0.9,0.5-1.4,0.5h-0.2l-2.8,3.1l0,0c-0.1-0.1-0.5-6.2-0.5-6.2l2.2-0.3l0.4,1.3c0.2,0,0.4,0,0.6-0.1c1.3-0.4,2-1.8,2-3.1
			c0-2.8,2.8-1.8,2.8-3.7c0-4.1-0.6-8-0.6-9.3c0-1.6-5-1.8-8.1-1.8c-8.3,0-11.5-4.5-11.7-4.7C90.8,134.6,93.9,137.6,95.5,136
			 M91.3,140.7c0.9,1.5,1.8,1.6,2.9,1.7c0.5,0.1,1,0.1,1.7,0.3c1.4,0.4,3.4,0.5,5.4,0.5c-1.5,3.6-4.2,5.9-7.2,8.5
			c-1.4,1.2-2.8,2.5-4.3,4c-0.5,0.5-0.9,1-1.1,1.4c-1.3,2-2,4.3-1.4,6.5c-1.1,0.2-1.6,0.4-2.6,1.3c-0.3-2.4-2-7.8-2.2-8.4
			c0.7-4.3,3.8-7.7,6.2-11.3c3.1-4.7-0.7-6.6-0.2-8.1C89.3,137.8,90.5,139.3,91.3,140.7 M88.1,127.5c-2.9-0.1-5,0.4-6.4,1.3
			c-1.4,1-4,1.6-4,1.6c-2.3,0.3-4.3,0.1-4.3-0.4l-0.6,0.2c-0.3-0.6-0.5-1.2-0.8-1.9l0.6-0.1c0,0.4,2.1,0.8,2.8,0.6
			c1.7-0.6,3.1-0.7,4.2-0.4l3.2-0.9C85.7,126.9,87.4,126.9,88.1,127.5 M87.4,116.5c-0.5,1.4-2.1,2.8-3.9,3.2c-1.8,0.5-3,0.5-5.3,0
			c-1.8-0.4-3,0.8-4.7,0.2c-1.3-0.4-2-0.8-2.9-1.8c-0.8-0.4-2.2-1.1-2.2-1.7l-0.8,0.2c-0.3-1.1-0.6-2.2-0.8-3.2l0.9-0.1
			c0,1.3,3,0.7,3.8,2.5c1,2.3,3.8,2.2,6.3,1.8c2.6-0.4,2.8-0.1,4.5,0.2c1.9,0.3,3.6-0.3,4.9-1.6C87.2,116.4,87.3,116.5,87.4,116.5
			 M87.9,106.3c-0.3-1.8-1.6-2.5-2.4-4.2c-0.7-1.5-0.9-2.4-1.4-4.1c-0.6-1.7,0-5,0-5c1.1,1.5-0.2,2.6,0.7,4.5
			c0.7,1.3,1.4,1.7,2.2,2.9c1.1,1.6,1.1,3.1,2.6,4.4c1.5,1.2,2.6,1.7,4.6,1.9c-0.8,0.9-1.9,0.3-2.7,0.8c-1.6,0.8-2.9,2.3-3.9,4.4
			c-0.2-0.1-0.5-0.2-0.7-0.3C88,109.8,88.3,108.4,87.9,106.3 M89.5,112.3c0.2-1.1,1.2-2.3,3-4c0,0,2.4-1,3.5-0.6
			c2.1,0.8,4.1,2.1,4.1,2.1s-0.4,0.5-2.5-0.4c-1.1-0.2-2.4-0.3-3.3-0.2c-1.6,0.1-3,2.3-3.6,3.4C90.3,112.4,89.9,112.4,89.5,112.3
			 M92.3,112.7c0.9-1.3,1.9-2.8,3.7-2.2c1.8,0.5,4.3,0,6.6,0.9l-0.1,0.3c-2.2-0.6-4.2,0-7.2-0.4c-1.1-0.2-1.5,0.7-2.1,1.5
			C92.9,112.8,92.6,112.7,92.3,112.7 M102.7,109.5c-2.4-1-5.1-2.5-7.4-5.3c-3.4,0.9-6-0.7-6-3.5c0-0.8-1.3-3.2-2.6-4.4
			c-0.9-0.9-1.4-4-1.6-6.7v-1.7c0.2,0,0.4,0,0.6,0.1l-0.2,1.7c0.8,4.8,2.2,7.7,4.2,8.6c-0.1,1.3,0.5,2.7,2,3.7
			c1.6,1.2,2.1,1.2,4.3,0.8c1,2.1,3.2,4.2,6.5,6.2L102.7,109.5z M102.9,107.2c-3.1-2-5.5-4.7-6.8-6.3h1.4c2.1,3.2,4.1,5.3,5.3,5.8
			L102.9,107.2z M95.3,101.8c-0.4,0-1.6,0.1-2.4-0.4c-1-0.5-1.7-2.2-1.7-2.2s2.1-0.4,3,0.3C95,100.2,95.1,101.3,95.3,101.8
			 M91.7,97.7c-1-1.1-0.8-1.8-2-3.1c-0.5-0.5-0.6-1-0.7-1.5c0.7,0.5,1.5,1.1,2.2,1.7C91.6,95.8,91.7,96.5,91.7,97.7 M83.6,91.2
			c0,0.8-0.6,1.5-1.3,1.5c-0.7,0-1.4-0.7-1.4-1.5c0-2.9,0.5-5.5,1.9-6.2c-0.9,1.2-0.9,2.8,0.1,4.9C83.1,90.3,83.3,90.7,83.6,91.2
			 M82.6,104.5c0.3,2.2,0.4,3.3,1.7,5.3l-0.2-0.1c-0.9-0.9-1.9-1.4-2.6-2.6c-0.9-1.6-0.5-2.9-1.2-4.7c-0.7-2.2-2.5-4.2-2.6-5.2
			c-0.2-2.6-0.8-6.1-0.2-6.2c0-0.5,0-1.2-0.1-1.8c0.4-0.2,0.9-0.4,1.4-0.5l0.1,1.7c-0.6,0,0.1,4.3,0.4,6.3
			C79.9,100.5,82.1,101.4,82.6,104.5 M76.6,99.2c0.7,1.9,1.2,4.2,2.5,6.5c-1.2-0.6-1.8-2-2.5-3.3c-0.9-1.5-1.5-2.4-1.6-3.9
			c-0.1-1.1-1.4-2.9-1.1-2.9l-2.3-2c0.7-0.8,1.4-1.6,2.2-2.2l1.4,2.2C75,94.4,76,95.7,76.6,99.2 M74.3,105c1.4,1.5,3.5,1.6,5,4.2
			c0.8,1.3,4.1,3.1,5.6,3l0.2,0.4c-0.9,0.2-3-0.4-5.5-1.8c-1.6-0.8-2.7-1-3.7-2.4c-1.6-2.2-2.7-2.4-4-4.3c-1.5-1.8-2.4-3-2.4-3.8
			l-1.2-1c0.3-0.8,0.7-1.7,1.2-2.4l1.2,1.2C70.1,98.6,72,103.3,74.3,105 M68.2,104.7c0.1,1,1.7,1.3,2.3,3c0,0,2.3,3.3,5.4,4.5
			c3.2,1.3,5.6,2.2,7.1,2.4c1.1,0.2,2.3,0.1,3.1-0.3c0,0,0.1,0.1,0.1,0.2c0,0,0,0.1,0.1,0.1c-1,0.8-3,1.6-4.6,1.3
			c0,0-3.1-0.3-4.7-1.4c-1.4-1-3.2-1.9-5.1-3.4c-1.7-1.1-4-2.9-4.1-3.9l-1.2-0.4c0.1-0.9,0.2-1.7,0.4-2.6L68.2,104.7z M69.4,122.4
			l1-0.2c0,0.9,4.2,1.9,7,1.9c2.3-0.1,3.5-0.9,5.9-0.7c1.4,0.1,2.3,0.9,3.8,0.5c-0.4,0.5-6.7,1.6-8.1,2.1c-1.9,0.7-7.6-0.4-7.6-1.1
			l-0.9,0.1C70.1,124.1,69.8,123.3,69.4,122.4 M74.1,132.9l1.1-0.3c0.5,0.5,2.6,0.3,3.6,0.1c1.8-0.3,3.3-0.1,5.4,0.3
			c-1.1-0.2-4.5,0.2-5.7,0.6c-1.2,0.5-2.4,0.8-2.7,0.4l-1.1,0.5C74.5,134,74.3,133.5,74.1,132.9 M79.6,164.1c0-4.2,0.6-9.2,1.3-9.9
			c-0.3,1,0.2,2.6,0.9,4.8c1.1,3.5,2.5,8.3,1.3,12.6l0,0c-2.2,7.7-11,14.9-13.2,15.3c-0.2,0-0.4,0.1-0.5,0.5
			c-0.9,1.9-0.2,15.7,0.6,17.2c0.6,1.1,1.5,1.7,2.2,2.3c0.8,0.6,1.5,1.2,2.2,2.3l0.1,0.2h0.2c1.8,0.3,4.7,1,6,1.7l-5.1,4.1
			c-0.4-0.6-3.2-5-3.2-5c-0.7-2.2-1.2-3.1-3.8-4.2c-0.4-0.2-0.9-0.8-0.8-2.4c0.2-2.1-0.7-7.7-1.9-10c-3.7-6.9,3-12.1,7.5-16.7
			C76.7,174,79.6,169.3,79.6,164.1 M215.6,219.1c1.4,1.8,1.8,3.7,1.4,5.5c-0.6,2.5-2.9,4.8-6.7,6.6c2.2-2.7,3.3-6,3.3-6
			s-1.9,3-9.1,7.7c-1.4,0.9-2.7,1.8-3.9,2.8c2-2.9,5.6-6.4,9-9c0.2-0.1,0.3-0.2,0.5-0.3c0.3-0.2,0.6-0.4,0.9-0.7
			C213.9,223.5,215.3,221,215.6,219.1 M124,227.5c10,4.2,20.5,6.3,31.4,6.3s21.4-2.1,31.4-6.3c1.8,4.2,4.6,8,6.9,10.7
			c-12.1,5.4-25,8.1-38.3,8.1c-13.4,0-26.2-2.7-38.3-8.1C120.2,234.6,122.6,230.9,124,227.5 M110.4,211.6c-1,0.3-1.8,1.3-1.8,2.4
			c0,0.5,0.1,0.9,0.4,1.4l0.1,0.1c0.1,0.1,0.2,0.3,0.3,0.4c1.4,1.6,2.4,3.4,3.1,5.4c-1.4-1-5.1-3.3-6.6-4.2c0,0,5.2,6,6.2,8.1
			c0.7,1.4,1.1,2.9,1.3,4.5c0-0.1-0.1-0.1-0.1-0.2c-1-1.3-1.6-2.1-2.8-3.2c-0.2-0.2-0.3-0.3-0.5-0.5l-2.5-1.9c0,0,5.1,5.9,4.5,12.3
			c-2-3.5-6.7-7.8-9.9-10.4c-0.2-0.1-0.3-0.2-0.5-0.4c-0.5-0.4-1-0.7-1.6-1.5v-0.1c-1.1-1.5-1.7-3.2-1.7-5.1c0-4.5,3.7-8.2,8.2-8.2
			C107.7,210.6,109.1,210.9,110.4,211.6 M97.4,225.2c0,0,1.1,3.4,3.3,6c-3.8-1.8-6.1-4.1-6.7-6.6c-0.4-1.8,0.1-3.7,1.4-5.5
			c0.3,1.8,1.6,4.3,4.6,6.4c0.3,0.3,0.6,0.5,0.9,0.7c0.2,0.1,0.3,0.2,0.5,0.3c3.4,2.6,7,6.2,9,9c-1.2-0.9-2.5-1.9-3.9-2.8
			C99.2,228.2,97.4,225.2,97.4,225.2 M80,185.2c0.4,0.9,1.6,1.2,3.6,1.8c1.7,0.5,4.1,1.2,6.7,2.5c3,1.5,4.3,3.3,5.3,4.7
			c0.9,1.3,1.6,2.3,3.1,2.3c0.9,0,1.3-0.8,1.6-1.4c0.3-0.6,0.4-0.8,0.7-0.8c0.9,0,2.2,5.1,2.2,8.7l0,0h-2.1l-7.7,12.4L85.7,203
			l-4.2,6.7c-0.1,0.2-0.2,0.4-0.4,0.6c-1.9-0.9-4.8-1.4-5.6-1.6c-0.7-1.2-1.6-1.8-2.3-2.4c-0.8-0.6-1.4-1.1-2-2
			c-0.7-1.2-1.6-14.3-0.9-15.9c2.8-0.7,10.8-7.6,13.5-14.8c0.1,2.8-0.6,5.4-2.3,7.7C80.5,182.5,79.5,183.9,80,185.2 M90.6,183.5
			c0,0.3,0.1,0.5,0.2,0.8c1.8,3.3,5.3,4.6,8.5,5.8c1.8,0.7,3.6,1.4,4.5,2.3c1.5,1.5,1.7,2.7,2.1,4.2c0.2,0.8,0.4,1.6,0.7,2.5
			l0.1,0.2l0.3,0.3c0.6,0.5,1.8,2.4,2.6,3.3h-4.9c-0.1-2.5-1.5-10.1-3.7-10.1c-0.9,0-1.3,0.8-1.6,1.4c-0.3,0.6-0.4,0.8-0.7,0.8
			c-0.9,0-1.4-0.6-2.3-1.8c-1-1.4-2.5-3.4-5.7-5c-0.7-0.4-1.4-0.7-2.1-0.9c-3.6-1.4-3.7-3.4-3.3-6c0.6-3.7,5.8-14.6,0.3-15.6
			c0.8-0.6,1.7-1,2.6-1.1l0.7-0.1l-0.3-0.6c-0.6-1.5-0.6-3.3,0.1-4.9h0.8c4.1,0.1,6.9,1.4,8.3,3.6c0.4,0.7,0.7,1.4,0.8,2.2
			c0.2,2-0.3,4.4-1.6,7.1c-0.9,1.8-2.3,3.8-3.5,5.6C91.6,180.1,90.2,182.1,90.6,183.5 M118.9,229.7c0,0-0.6-3.9-0.7-4.7
			c1,0.7,2,1.3,3,1.9l0.7,0.4c-1.2,2.6-2.9,5.4-5.1,8.1c-1.3-0.8-2.6-1.6-3.9-2.5c-0.1-1.1-0.3-2.2-0.8-3.4c0.1,0.2,0.2,0.3,0.4,0.5
			c0.3,0.4,0.7,0.9,1.2,1.5l1,1.2l-0.1-1.6c-0.1-2.4-0.6-4.5-1.6-6.6c-0.6-1.2-1.3-2.3-2.1-3.4c0.8,0.5,1.5,1.1,2.3,1.6l1.1,0.8
			l-0.4-1.4c-0.7-2.7-1.9-5.1-3.7-7.2c-0.1-0.1-0.2-0.3-0.3-0.4c-0.2-0.2-0.2-0.5-0.2-0.8c0-0.8,0.7-1.5,1.5-1.5
			c0.3,0,0.6,0.1,0.8,0.2c0.1,0,0.1,0.1,0.2,0.2c0.8,0.8,1.4,1.8,1.8,2.9c1,2.1,1.3,3.7,1.6,5c0.2,0.9,0.3,1.7,0.7,2.6
			C116.2,224,117.8,227.6,118.9,229.7 M192,229.7c1.2-2.1,2.7-5.7,2.8-6.3c0.3-0.8,0.5-1.7,0.7-2.6c0.3-1.4,0.6-3,1.6-5
			c0.4-1.1,1-2.1,1.8-2.9c0-0.1,0.1-0.1,0.2-0.2c0.2-0.2,0.5-0.2,0.8-0.2c0.8,0,1.5,0.7,1.5,1.5c0,0.3-0.1,0.5-0.2,0.8
			c-0.1,0.1-0.2,0.3-0.3,0.4c-1.8,2.1-3,4.5-3.7,7.2l-0.3,1.4l1.1-0.8c0.7-0.5,1.5-1.1,2.3-1.6c-0.9,1.1-1.6,2.2-2.1,3.4
			c-1,2-1.5,4.2-1.6,6.6l-0.1,1.6l1-1.2c0.5-0.6,0.9-1.1,1.2-1.5c0.1-0.2,0.3-0.3,0.4-0.5c-0.5,1.2-0.7,2.3-0.8,3.4
			c-1.3,0.9-2.6,1.7-3.9,2.5c-2.2-2.7-3.9-5.5-5.1-8.1l0.7-0.4c1-0.6,2-1.2,3-1.9C192.6,225.9,192,229.7,192,229.7 M212.8,218.8
			c0,1.9-0.6,3.6-1.7,5.1v0.1c-0.6,0.8-1.1,1.1-1.6,1.5c-0.2,0.1-0.3,0.2-0.5,0.4c-3.3,2.5-7.9,6.9-9.9,10.4
			c-0.5-6.3,4.5-12.3,4.5-12.3l-2.5,1.9c-0.2,0.2-0.4,0.3-0.5,0.5c-1.2,1.2-1.8,1.9-2.8,3.2c0,0.1-0.1,0.1-0.1,0.2
			c0.2-1.6,0.7-3.1,1.3-4.5c1-2.1,6.2-8.1,6.2-8.1c-1.5,0.9-5.2,3.2-6.6,4.2c0.7-2,1.7-3.8,3.1-5.4c0.1-0.1,0.2-0.3,0.3-0.4l0.1-0.1
			c0.3-0.4,0.4-0.9,0.4-1.4c0-1.1-0.7-2.1-1.8-2.4c1.2-0.7,2.6-1.1,4.1-1.1C209.2,210.6,212.8,214.3,212.8,218.8 M214.3,182.5
			c-0.2-0.8-0.6-1.7-0.9-2.5c-1.4-3.4-2.6-6.6,1.7-11.1c0.8-0.9,1.7-1.7,2.6-2.6l0.1-0.1c4.1-4.1,7.9-7.9,8-11.1c1.8,2,2.8,4.3,2,7
			l-0.1,0.3l0.2,0.2c2.1,1.8,3.3,3.3,3.7,4.4c-0.5,0.6-1.1,1.2-1.7,1.8c-0.1,0.1-0.2,0.2-0.3,0.3c-1.6-1-2.6,2.8-5.1,2.9
			c-2.7,0.7-5.1-1.1-6.4,0.4C216.2,174.5,221.4,179,214.3,182.5 M211.7,197.3l0.1,0.1c0.4,0.4,0.5,1,0.3,1.5c-0.1,0.3-0.4,0.7-1,0.7
			c-0.1,0-0.2,0-0.3,0h-0.2l-1.2,3.3h-3.6c1.3-2,6-8.7,8.4-15.8c1.2-0.8,3.5,0,3.6,1.2c-2.2,2.7-4.1,5.3-6,8.7L211.7,197.3z
			 M95.6,229.1c1.6,1.5,3.9,2.8,6.8,3.9l2,0.6c-0.5-0.5-2.4-2.3-3.1-3.2h0.1c1.4,1.1,2.9,2.2,4.4,3.2c2.4,1.7,4.7,3.2,6.1,4.9l0.8,1
			v-0.8l0,0c0-0.1,0-0.2,0-0.3v-0.2c0-0.7,0-1.3,0-1.9c0-0.1,0-0.1,0-0.2c0-0.7,0-1.3,0-2c1.1,0.7,2.1,1.4,3.2,2
			c-0.4,0.5-0.9,1.1-1.4,1.6l-0.9,1l1.2,0.6c12.7,5.9,26.3,8.9,40.4,8.9s27.7-3,40.4-8.9l1.2-0.6l-0.9-1c-0.5-0.5-0.9-1.1-1.4-1.6
			c1.1-0.7,2.2-1.3,3.2-2c0,0.7,0,1.3,0,2c0,0.1,0,0.1,0,0.2c0,0.6,0,1.2,0,1.9v0.2c0,0.1,0,0.2,0,0.3l0,0v0.8l0.8-1
			c1.3-1.7,3.6-3.3,6.1-4.9c1.5-1,3-2.1,4.4-3.2h0.1c-0.7,0.9-2.6,2.7-3.1,3.2l2-0.6c2.9-1.1,5.2-2.4,6.8-3.9L240,223
			c-7.8,5.8-16.6,9.9-26.7,12.4h-0.1v0.1c-1.4,2.5-3,5.2-5.1,7.6c-4.1-0.3-7.8-1.2-11.4-2.7l-0.1-0.1l-0.1,0.1
			c-10.3,8.1-25.4,12.8-41.4,12.8s-31.1-4.7-41.4-12.8l-0.1-0.1l-0.1,0.1c-3.6,1.4-7.4,2.3-11.4,2.7c-2.1-2.4-3.7-5.1-5.1-7.6
			l-0.1-0.1h-0.1c-10.1-2.5-18.9-6.6-26.7-12.4L95.6,229.1z M187.9,92c-0.5-0.5-0.9-1.1-1-1.8c0,0,0,0,0-0.1l0.8-0.3
			c0.3-0.1,0.6-0.2,0.9-0.3l0.4-0.1c0.9-0.4,1.8-0.7,2.8-1.3c0.1-0.1,0.3-0.2,0.4-0.3h0.1c0.1-0.1,0.2-0.2,0.4-0.3l0.1-0.1
			c0.1,0,0.1-0.1,0.2-0.2l-2,4.7c-0.3,0.3-0.5,0.6-0.8,1h-0.1c-0.8-0.7-1.3-1.8-1.2-2.8C188.4,90.7,188.1,91.3,187.9,92 M123,92
			c-0.2-0.7-0.5-1.3-0.9-1.9c0.1,1-0.3,2.1-1.2,2.8h-0.1c-0.2-0.4-0.5-0.7-0.8-1l-2-4.7c0.1,0.1,0.1,0.1,0.2,0.2l0.1,0.1
			c0.1,0.1,0.2,0.2,0.4,0.3h0.1c0.1,0.1,0.3,0.2,0.4,0.3c1,0.6,1.9,1,2.8,1.3l0.4,0.1c0.3,0.1,0.6,0.2,0.9,0.3l0.8,0.3
			c0,0,0,0,0,0.1C123.9,90.9,123.6,91.5,123,92 M103.8,109.3c0-0.7,0.5-1.1,0.9-0.7c0.5,0.6,0.3,3-0.1,3
			C104.5,110.9,103.8,109.9,103.8,109.3 M252.9,139.2c0,0,1.2-0.5,2.7,0.1c0,0,1-6.2-2.6-10.3l-0.9-0.9c0,0,0.8,3.2-2.3,7.7
			c-1.1,1.6-2,3.1-2,5.2c0,3,1.2,6.4,2.8,9.1c3.3,5.5,4.8,13.1-1.9,10.6c-0.3-4.4-4.4-9.6-7.1-13.1c-0.9-1.2-2-2.5-2-2.8
			c0-1.3,0.1-8.2-3.8-18.5v-0.1c-0.2-0.4-0.3-0.7,0.4-1.4l0.1-0.1c0.2-0.4,0.5-0.9,0.9-1.5c2.2-3.5,5.8-9.3,4.7-19.3
			c2-0.7,4.4-2.5,4.8-4.3c3.3-0.4,4.9-2.9,4.7-7.5c0.3-0.4,0.3-0.8,0.2-0.9c-0.2-0.4-0.6-0.5-1.1-0.2l-0.1,0.1
			c-1.2,1.3-2.7,1.5-4.7,1.9c-0.9,0.1-1.9,0.3-2.9,0.6c-0.8,0.2-1.4,0.5-2,0.9c0.9-3.6,2.2-5,4.1-7c4.4-4.7,4.5-9.1,4.5-9.1
			s-1.8,3.8-6.7,6.5c-1.4,0.8-4.1,2.6-5.3,3.6c3.6-6.7,4-13.6,4-13.6s-2.9,5.9-5.2,8.4c-3,3.4-6.1,6.8-5.2,10.5
			c-2,0.3-4.1,1.1-4.6,2.2c-0.7,1.6-2.3,3.2-4.1,5l-0.3,0.3c-1,1-2.4,1.9-3.6,2.7c-1.8,1.2-3.2,2.1-3.4,3.3c-0.2,0.9,0,1.4,0.4,1.7
			c-0.1,0.2-0.2,0.3-0.3,0.5c-0.2,0.5-0.1,0.9,0.2,1.3s0.9,0.8,1.6,0.7c0.2,0,0.4,0,0.5-0.1c0.5,1,1.4,1.5,1.9,1.4
			c0.7,0,1.6-0.4,2.6-1.2c1.4-0.1,2.8,0.1,3.7,0.4c-0.9,0.9-2.4,2-4.1,3.2c-3.1,2.3-7,5.2-9.7,8.4c-0.3-0.2-7.8-4.8-8.9-5.6
			c-1.6-1.1-2.8-3.1-4.3-3l0,0c-0.4,0-0.8,0.2-1,0.3c-0.3-0.3-0.9-0.5-1.7-0.4c-1.7,0.2-2.2,1.6-2.8,3c-0.1,0.2-0.2,0.3-0.2,0.5H188
			h-6c0-0.1,0-0.2,0-0.3c0-0.2,0-0.5-0.1-0.7l0,0c-0.2-0.6-0.2-1.1-0.2-1.7c0-0.1,0-0.3,0-0.5v-0.1c0-0.1,0-0.2,0-0.3v-0.1
			c0-0.1,0-0.2,0-0.3v-0.1c0-0.1,0.1-0.2,0.1-0.3v-0.1c0-0.1,0.1-0.2,0.1-0.3v-0.1c0-0.1,0.1-0.2,0.1-0.3v-0.1
			c0.1-0.1,0.1-0.2,0.2-0.3v-0.1c0.1-0.1,0.1-0.2,0.2-0.3v-0.1c0.1-0.1,0.1-0.2,0.2-0.3l0,0c0.1-0.1,0.2-0.2,0.3-0.3l0.1-0.1l0,0
			l1.6-1.3c0.1-0.1,0.2-0.1,0.3-0.2l0,0l0,0l0,0c0.4-0.2,0.8-0.6,1-1V109c0-0.1,0.1-0.2,0.1-0.3c0-0.1,0-0.1,0-0.2s0-0.1,0-0.2
			s0-0.1,0-0.2c0-0.5-0.2-1-0.6-1.4c-0.1-0.1-0.1-0.1-0.2-0.2l0.9-2.2l2.4-5.6l0,0l5.8-13.4l-1-0.7c-0.2,0.2-0.4,0.3-0.6,0.5l-1.3,1
			c-0.1,0.1-0.2,0.1-0.2,0.2l-0.1,0.1c-0.1,0.1-0.2,0.2-0.3,0.2l0,0c-0.1,0.1-0.3,0.2-0.4,0.2c-0.9,0.5-1.8,0.9-2.6,1.2l-0.4,0.1
			c-0.3,0.1-0.6,0.2-0.9,0.3l-0.1,0.1l-0.7-0.4l0,0c-1.1,1.4-1.4,3.9-0.9,6.5c0.2,0.9,0.5,1.7,0.8,2.5v0.1c0,0,0,0.1,0.1,0.1
			l0.1,0.2c0.1,0.1,0.1,0.3,0.2,0.4l0,0c0.1,0.2,0.3,0.4,0.4,0.7c0,0.1-0.1,0.2-0.1,0.3c-0.1,0-0.2,0.1-0.2,0.1H186
			c-0.1,0-0.2,0.1-0.3,0.1h-0.1c-0.1,0-0.1,0-0.2,0h-0.1h-0.1h-0.1H185c-0.1,0-0.1,0-0.2,0h-0.1c-0.1,0-0.2,0-0.2-0.1
			c-0.7-0.3-1.1-1.1-1.2-1.6c-0.1-0.5-0.2-1.1-0.2-1.7v-1.3l-1,0.7c-0.5,0.4-1,0.9-1.3,1.6c-0.2,0.5-0.3,1-0.3,1.5
			c0,1.5,0.9,2.9,2.3,3.5c0.1,0.1,0.3,0.1,0.4,0.2l0,0c-0.2,0-0.3,0.1-0.5,0.1h-0.1h-0.1c-0.1,0-0.2,0-0.3,0s-0.1,0-0.2,0
			c-0.1,0-0.2,0-0.3,0h-0.1c-0.1,0-0.2,0-0.3,0c-0.5-0.1-0.9-0.2-1.3-0.4c-0.9-0.5-1.7-1.3-2.1-2.3c-0.2-0.5-0.3-1-0.3-1.5
			c0-0.3,0-0.6,0.1-0.9l0,0c2.7,0,4.8-2.2,4.8-4.8c0-2.7-2.2-4.8-4.8-4.8c-2.7,0-4.8,2.2-4.8,4.8v0.1c0,0.2,0,0.3,0,0.5
			c0,0.1,0,0.2,0,0.3c0,0.1,0.1,0.3,0.1,0.5c0,0.1,0,0.2,0.1,0.2c0,0.1,0.1,0.3,0.2,0.4c0,0.1,0.1,0.1,0.1,0.2
			c0.1,0.2,0.2,0.3,0.2,0.4l0.1,0.1c0.1,0.1,0.2,0.3,0.3,0.4l0.1,0.1c0.2,0.2,0.3,0.3,0.4,0.4l0,0c0.1,0.1,0.3,0.2,0.5,0.3l0.1,0.1
			l0,0v0.1l-0.1,0.2c0,0.1-0.1,0.2-0.1,0.2l-0.1,0.1c-0.1,0.1-0.1,0.2-0.2,0.2l-0.1,0.1c-0.1,0.1-0.1,0.2-0.2,0.2v0.1
			c-0.1,0.1-0.2,0.2-0.2,0.2l0,0c-0.1,0.1-0.2,0.2-0.3,0.2c-0.1,0.1-0.2,0.2-0.3,0.2l0,0c-0.9,0.6-2,0.8-3.1,0.6
			c-0.9-0.2-1.6-0.5-2.3-1.1l0,0l0,0c0.1,0,0.2,0,0.3,0.1c0.2,0,0.3,0,0.5,0c1.2,0,2.3-0.6,3-1.5c0.4-0.5,0.6-1.1,0.7-1.7
			c0-0.2,0-0.5,0-0.7v-0.1c0-0.1,0-0.1,0-0.2c0-0.3-0.1-0.6-0.3-1l-0.5-1.2l-0.6,1.1c-0.1,0.1-0.2,0.3-0.2,0.4s-0.1,0.1-0.1,0.1
			l-0.1,0.1c-0.6,0.8-1.2,1.3-1.8,1.5c-0.2,0.1-0.5,0.1-0.7,0.1c-0.1,0-0.2,0-0.4-0.1h-0.1c0,0-0.1,0-0.1-0.1h-0.1l-0.1-0.1h-0.1
			c-0.1-0.1-0.2-0.1-0.3-0.2l0,0c-0.1-0.1-0.1-0.1-0.1-0.2l-0.1-0.1c0-0.1,0-0.2,0-0.2v-0.1c1.2-0.6,2.5-1.4,3.5-2.6
			c0.4-0.5,0.8-0.9,1.2-1.4c1.1-1.6,1.6-3.2,1.4-4.6l-0.8-0.1c-0.2-0.3-0.5-0.6-0.7-0.9c-0.1-0.2-0.2-0.3-0.3-0.4l0,0L171,83v-0.1
			c-0.1-0.1-0.2-0.2-0.2-0.3v-0.1c-0.1-0.1-0.1-0.2-0.2-0.3v-0.1c-0.1-0.1-0.1-0.2-0.2-0.3l0,0c-0.1-0.1-0.1-0.2-0.2-0.4v-0.1
			c-0.1-0.1-0.1-0.2-0.2-0.4l0,0c-0.1-0.1-0.1-0.3-0.2-0.4c-0.4-0.8-0.8-1.7-1.2-2.9l-0.4-1.2l-0.7,1c-1.7,2.5-2.8,3.5-4.6,4.9
			c-0.3,0.2-0.6,0.4-0.9,0.7l-0.1,0.1l-0.7-0.2V83c-0.1,0.4-0.2,0.8-0.3,1.2c-0.2,1.6,0.2,3.4,1.2,5.2c0.2,0.4,0.5,0.9,0.8,1.2
			c0.6,0.8,1.2,1.6,1.9,2.2v0.1v0.2l0,0l-0.1,0.1c-0.3,0.2-0.5,0.3-0.8,0.4h-0.1c-0.1,0-0.1,0-0.2,0h-0.1c-0.2,0-0.3,0-0.4,0
			c-1-0.1-1.9-1.2-2.3-2.8v-1.7l-1.2,1.4c-0.4,0.5-0.7,1.1-0.8,1.8c-0.2,1.8,0.8,3.5,2.5,4c0.2,0.1,0.5,0.1,0.7,0.2
			c0.1,0,0.3,0,0.4,0l0,0c-0.1,0-0.1,0.1-0.2,0.1l-0.1,0.1c-0.1,0-0.2,0.1-0.2,0.1c-0.8,0.3-1.6,0.4-2.4,0.2
			c-0.4-0.1-0.8-0.2-1.1-0.4c-0.1,0-0.2-0.1-0.3-0.1l-0.1-0.1c-0.1,0-0.1-0.1-0.2-0.1c-0.1,0-0.1-0.1-0.2-0.1l-0.1-0.1
			c-0.1-0.1-0.1-0.1-0.2-0.2l-0.1-0.1c-0.1-0.1-0.2-0.2-0.2-0.2c-0.5-0.6-0.8-1.2-1-1.8c0-0.1-0.1-0.3-0.1-0.4v-0.1c0,0,0,0,0-0.1
			c0.1,0,0.2-0.1,0.3-0.1h0.1c0.1,0,0.2-0.1,0.3-0.1c0,0,0.1,0,0.1-0.1c0.1-0.1,0.2-0.1,0.3-0.1c0,0,0.1,0,0.1-0.1
			c0.1-0.1,0.2-0.1,0.3-0.2l0.1-0.1c0.1-0.1,0.2-0.1,0.2-0.2l0.1-0.1c0.1-0.1,0.2-0.2,0.2-0.2l0.1-0.1c0.1-0.1,0.1-0.1,0.2-0.2
			l0.1-0.1c0.1-0.1,0.1-0.2,0.2-0.2l0.1-0.1c0.1-0.1,0.1-0.2,0.2-0.3l0.1-0.1c0.1-0.1,0.1-0.2,0.2-0.3v-0.1c0-0.1,0.1-0.2,0.1-0.4
			c0.2-0.5,0.2-1,0.2-1.5c0-2.7-2.2-4.8-4.8-4.8c-2.7,0-4.8,2.2-4.8,4.8c0,0.5,0.1,1,0.2,1.5c0,0.1,0.1,0.3,0.1,0.4v0.1
			c0,0.1,0.1,0.2,0.2,0.3l0.1,0.1c0.1,0.1,0.1,0.2,0.2,0.3l0.1,0.1c0.1,0.1,0.1,0.2,0.2,0.2l0.1,0.1c0.1,0.1,0.1,0.1,0.2,0.2
			l0.1,0.1c0.1,0.1,0.1,0.1,0.2,0.2l0.1,0.1c0.1,0.1,0.1,0.1,0.2,0.2l0.1,0.1c0.1,0,0.2,0.1,0.3,0.2c0,0,0.1,0,0.1,0.1
			c0.1,0,0.2,0.1,0.3,0.1c0,0,0.1,0,0.1,0.1c0.1,0,0.2,0.1,0.3,0.1h0.1c0.1,0,0.2,0.1,0.3,0.1c0,0,0,0,0,0.1v0.1
			c0,0.1,0,0.2-0.1,0.4c-0.2,0.7-0.5,1.3-1,1.8c-0.1,0.1-0.2,0.2-0.2,0.2l-0.1,0.1c-0.1,0.1-0.1,0.1-0.2,0.2l-0.1,0.1
			c-0.1,0-0.1,0.1-0.2,0.1c-0.1,0-0.1,0.1-0.2,0.1l-0.1,0.1c-0.1,0-0.2,0.1-0.3,0.1c-0.4,0.2-0.7,0.3-1.1,0.4
			c-0.8,0.1-1.6,0.1-2.4-0.2c-0.1,0-0.2-0.1-0.2-0.1l-0.1-0.1c-0.1,0-0.1-0.1-0.2-0.1l0,0c0.1,0,0.2,0,0.4,0s0.5-0.1,0.7-0.2
			c1.7-0.6,2.7-2.3,2.5-4c-0.1-0.7-0.4-1.3-0.8-1.8l-1.2-1.4v1.7c-0.4,1.6-1.3,2.7-2.3,2.8c-0.1,0-0.2,0-0.4,0h-0.1
			c-0.1,0-0.1,0-0.2,0h-0.1c-0.3-0.1-0.5-0.2-0.8-0.4l-0.1-0.1l0,0v-0.2v-0.1c0.7-0.6,1.4-1.3,1.9-2.2c0.3-0.4,0.5-0.8,0.8-1.2
			c0.9-1.8,1.4-3.7,1.2-5.2c0-0.5-0.1-0.9-0.3-1.2v-0.1l-0.7,0.2l-0.1-0.1c-0.3-0.2-0.6-0.4-0.9-0.7c-1.8-1.4-2.9-2.4-4.6-4.9
			l-0.7-1l-0.4,1.2c-0.4,1.2-0.8,2.1-1.2,2.9c-0.1,0.1-0.1,0.3-0.2,0.4l0,0c-0.1,0.1-0.1,0.2-0.2,0.4v0.1c-0.1,0.1-0.1,0.2-0.2,0.4
			l0,0c-0.1,0.1-0.1,0.2-0.2,0.3v0.1c-0.1,0.1-0.1,0.2-0.2,0.3v0.1c-0.1,0.1-0.1,0.2-0.2,0.3V83l-0.2,0.3l0,0
			c-0.1,0.1-0.2,0.2-0.3,0.4c-0.2,0.3-0.4,0.6-0.7,0.9l-0.8,0.1c-0.1,1.3,0.4,3,1.4,4.6c0.3,0.5,0.7,1,1.2,1.4
			c1.1,1.1,2.3,2,3.5,2.6v0.1c0,0.1,0,0.2,0,0.2l-0.1,0.1c0,0-0.1,0.1-0.1,0.2l0,0c-0.1,0.1-0.2,0.2-0.3,0.2h-0.1l-0.1,0.1h-0.1
			c0,0-0.1,0-0.1,0.1h-0.1c-0.1,0-0.2,0.1-0.4,0.1s-0.5,0-0.7-0.1c-0.6-0.2-1.3-0.7-1.8-1.5l-0.1-0.1c0,0,0-0.1-0.1-0.1
			c-0.1-0.1-0.2-0.2-0.2-0.4l-0.6-1.1l-0.5,1.2c-0.1,0.3-0.2,0.6-0.3,1c0,0.1,0,0.1,0,0.2v0.1c0,0.3,0,0.5,0,0.7
			c0.1,0.6,0.3,1.2,0.7,1.7c0.7,1,1.8,1.5,3,1.5c0.2,0,0.3,0,0.5,0c0.1,0,0.2,0,0.3-0.1l0,0l0,0c-0.6,0.6-1.4,1-2.3,1.1
			c-1.1,0.2-2.2,0-3.1-0.6l0,0c-0.1-0.1-0.2-0.1-0.3-0.2s-0.2-0.1-0.3-0.2l0,0c-0.1-0.1-0.2-0.2-0.2-0.2v-0.1
			c-0.1-0.1-0.1-0.2-0.2-0.2l-0.1-0.1c-0.1-0.1-0.1-0.2-0.2-0.2l-0.1-0.1c0-0.1-0.1-0.2-0.1-0.2l-0.1-0.2v-0.1l0,0l0.1-0.1
			c0.2-0.1,0.3-0.2,0.5-0.3l0,0c0.1-0.1,0.3-0.2,0.4-0.4l0.1-0.1c0.1-0.1,0.2-0.3,0.3-0.4l0.1-0.1c0.1-0.1,0.2-0.3,0.2-0.4
			s0.1-0.1,0.1-0.2c0.1-0.1,0.1-0.3,0.2-0.4c0-0.1,0.1-0.2,0.1-0.2c0-0.2,0.1-0.3,0.1-0.5c0-0.1,0-0.2,0-0.3c0-0.2,0-0.3,0-0.5v-0.1
			c0-2.7-2.2-4.8-4.8-4.8c-2.7,0-4.8,2.2-4.8,4.8c0,2.7,2.2,4.8,4.8,4.8l0,0c0,0.3,0.1,0.6,0.1,0.9c0,0.5-0.1,1-0.3,1.5
			c-0.4,1-1.1,1.8-2.1,2.3c-0.4,0.2-0.8,0.3-1.3,0.4c-0.1,0-0.2,0-0.3,0h-0.1c-0.1,0-0.2,0-0.3,0c-0.1,0-0.1,0-0.2,0s-0.2,0-0.3,0
			h-0.1h-0.1c-0.2,0-0.3,0-0.5-0.1l0,0c0.1,0,0.3-0.1,0.4-0.2c1.4-0.6,2.3-2,2.3-3.5c0-0.5-0.1-1-0.3-1.5c-0.3-0.6-0.7-1.2-1.3-1.6
			l-1-0.7v1.3c0,0.6,0,1.2-0.2,1.7c-0.2,0.6-0.5,1.3-1.2,1.6c-0.1,0-0.2,0.1-0.2,0.1h-0.1c-0.1,0-0.1,0-0.2,0h-0.1h-0.1h-0.1H124
			c-0.1,0-0.1,0-0.2,0h-0.1c-0.1,0-0.2,0-0.3-0.1h-0.1c-0.1,0-0.2-0.1-0.2-0.1c0-0.1-0.1-0.2-0.1-0.3c0.1-0.2,0.3-0.4,0.4-0.7l0,0
			c0.1-0.1,0.1-0.3,0.2-0.4l0.1-0.2c0,0,0-0.1,0.1-0.1v-0.1c0.4-0.8,0.6-1.6,0.8-2.5c0.6-2.6,0.2-5.1-0.9-6.5l0,0l-0.7,0.4l-0.1-0.1
			c-0.3-0.1-0.6-0.2-0.9-0.3l-0.4-0.1c-0.8-0.3-1.6-0.7-2.6-1.2c-0.1-0.1-0.3-0.2-0.4-0.2l0,0c-0.1-0.1-0.2-0.2-0.3-0.2l-0.1-0.1
			c-0.1-0.1-0.2-0.1-0.2-0.2l-1.3-1c-0.2-0.1-0.4-0.3-0.6-0.5l-1,0.7l5.8,13.4l0,0l2.4,5.6l0.9,2.2c-0.1,0.1-0.1,0.1-0.2,0.2
			c-0.4,0.4-0.6,0.9-0.6,1.4c0,0.1,0,0.1,0,0.2s0,0.1,0,0.2c0,0,0,0.1,0,0.2s0,0.2,0.1,0.3v0.1c0.2,0.5,0.6,0.8,1,1l0,0l0,0l0,0
			c0.1,0,0.2,0.1,0.3,0.2l1.6,1.3l0,0l0.1,0.1c0.1,0.1,0.2,0.2,0.3,0.3l0,0c0.1,0.1,0.1,0.2,0.2,0.3v0.1c0.1,0.1,0.1,0.2,0.2,0.3
			v0.1c0,0.1,0.1,0.2,0.2,0.3v0.1c0,0.1,0.1,0.2,0.1,0.3v0.1c0,0.1,0.1,0.2,0.1,0.3v0.1c0,0.1,0.1,0.2,0.1,0.3v0.1
			c0,0.1,0,0.2,0.1,0.3v0.1c0,0.1,0,0.2,0,0.3v0.1c0,0.2,0,0.3,0,0.5c0,0.6-0.1,1.2-0.2,1.7l0,0c-0.1,0.2-0.1,0.4-0.1,0.7
			c0,0.1,0,0.2,0,0.3h-5.4h-3.2c-0.2-0.4-0.4-0.7-0.6-1.2c-0.8-1.6-1.7-3.3-3.6-3.3c-0.7,0-1.5,0.3-2,0.9c-0.4-0.3-0.9-0.4-1.5-0.4
			c-0.7,0-1.4,0.3-2,0.8c-0.3,0.3-1,1.2-1.9,2.4c-2,2.6-5.2,6.9-7.1,8.3c-2.3-4.1-6.7-7.6-13-10.6c-0.5-0.2-0.8-0.9-1.2-1.8
			c-0.2-0.5-0.5-0.9-0.7-1.5c3.3,1.4,7.8,1.5,8.8,1.5c1.6,0,4.1,1.8,4.5,2.4c0.4,0.5,1.4,1.1,2.3,1.1c0.5,0,1.8-0.2,2.1-2
			c0.4-0.1,0.7-0.2,0.9-0.5c0.4-0.4,0.6-1.1,0.6-1.9c-0.1-1.8,0.3-2.9,0.7-3.6c1-2-1.7-4.2-4.4-6.1c-4.1-2.8-6.8-5.7-8-7.3l-0.4-0.8
			c-0.2-0.5-3.3-3-4.7-3.9l0.7-4L88,86.8c-1.8-0.5-3.4-0.7-5-0.8c0.1-0.9,0.1-1.6-0.3-2.1c-0.3-0.3-0.7-0.5-1.3-0.4h-0.1
			c-0.9,0.4-1.6,1.3-2,2.7C68.9,87.9,63.5,98.9,63.5,109c0,5.8,2.8,12.4,5.4,18.2c3,7,5.6,13.1,2.8,15.9c-4.3,4.2-8.9,9.3-10.6,15.7
			l0,0c-0.5,0.6-1.1,0.8-1.6,0.8c-1.3,0-2.4-2-2.4-4.5c0-1.3,0.9-3.4,1.9-5.5c1.3-2.9,2.8-6.1,2.8-9.1c0-2.1-1-3.6-2-5.2
			c-1.1-1.8-2.3-3.6-2.3-6.5v-1.2L58,129c-2.6,2.6-3.5,5.1-2.8,7.9c1.2,5,1,8.5-0.5,10l0.7,0.7c0.4-0.3,1.7-1.1,2.5-1.1
			c0.1,0,0.1,0,0.2,0c0.3,0.5-0.7,2.8-1.5,4.5c-1.1,2.6-2.4,5.4-2.4,7.7c0,2.1,0.5,4,1.5,5.5s2.3,2.3,3.7,2.3c0.8,0,1.6-0.2,2.3-0.7
			c0,0.2,0,0.4,0,0.6c0.3,3.7,2.6,6.3,4.5,8.3c2.4,2.6,3.5,3.9,1.3,6.1l-0.5,0.5c-2.5,2.5-5.1,5.1-5.1,7.3c0,1.7,0.5,2.5,1.2,3.6
			c0.6,1.1,1.5,2.5,2.4,5.5v0.1c0,0,1.9,4.4,1,6.9c-0.3,0.9-0.2,1.9,0.3,2.6s1.3,1.1,2.2,1l0,0c0.9,0,2,2,3,3.8
			c0.7,1.3,1.6,2.8,2.5,4c0,0-0.1,0-0.1,0.1c-0.3,0.2-0.6,0.3-0.9,0.5c-0.1,0-0.2,0.1-0.3,0.1c-0.3,0.1-0.5,0.2-0.8,0.3
			c-0.1,0-0.2,0.1-0.3,0.1c-0.3,0.1-0.7,0.3-1.1,0.4c-0.1,0-0.2,0.1-0.3,0.1c-0.3,0.1-0.7,0.2-1,0.3c-0.1,0-0.1,0-0.2,0.1
			c-0.4,0.1-0.8,0.2-1.2,0.2c-0.1,0-0.2,0-0.3,0.1c-0.4,0.1-0.7,0.1-1.1,0.2h-0.1c-0.4,0.1-0.8,0.1-1.3,0.1c-0.1,0-0.2,0-0.3,0
			c-0.4,0-0.9,0-1.3,0h-1.8c9.1,8.5,21.6,15.5,34.3,18.7c1.4,2.5,3,5.2,5.3,7.8l0.1,0.1h0.1c4.2-0.3,8.1-1.2,11.7-2.6
			c10.4,8.1,25.6,12.7,41.7,12.7s31.3-4.6,41.7-12.7c3.7,1.4,7.5,2.3,11.7,2.6h0.1l0.1-0.1c2.3-2.6,3.9-5.3,5.3-7.8
			c12.6-3.1,25.1-10.1,34.2-18.7h-1.8l0,0c-0.4,0-0.7,0-1.1,0c-1.8-0.1-3.6-0.4-5.3-0.9l0.6-3.4c0.7-0.3,1.2-0.7,1.5-1.3
			c0.3-0.7,0.5-2-0.2-2.9c1.2-7.6,2.4-10.3,4.9-16.4c0.3-0.7,0.5-1.2,0.9-1.7c0.7-0.8,1.3-1.5,1.2-2.4c0-0.8-0.6-1.6-1.5-2.2
			c0-0.1,0-0.2,0.1-0.2c0.2-0.7,0.4-1.6-0.5-2.4c-0.5-0.5-1.1-0.7-1.6-1c-0.8-0.4-1.5-0.8-1.8-1.9c-0.6-1.8,0.2-3.5,1.3-5.7
			c0.4-0.9,1.6-3.4,2.5-6.5c0.4-1.4,0.6-3,0.7-4.8c2.3,0.8,7.8,1.8,8-6.2c0-2.2-1.3-5.1-2.4-7.7c-0.7-1.7-1.8-4-1.5-4.5
			c0,0,0.1,0,0.2,0c0.9,0,2.1,0.8,2.5,1.1C255.6,147.7,257.2,142.6,252.9,139.2"/>
		<path class="st1" d="M661.6,292.9c12.9,0,21.4-5.8,21.4-20.5V249h-14.6v23.9c0,5.2-2.8,7.3-6.6,7.3c-3.9,0-6.6-2.3-6.6-7.6V249
			h-14.6v23.7C640.4,287,648.7,292.9,661.6,292.9 M601.1,280.2c-5.5,0-9-4.6-9-9.7v-0.1c0-5,3.4-9.6,8.9-9.6s9,4.6,9,9.7v0.1
			C610,275.7,606.6,280.2,601.1,280.2 M601,292.9c13.3,0,23.6-10,23.6-22.5v-0.1c0-12.5-10.1-22.3-23.4-22.3
			c-13.3,0-23.6,10-23.6,22.4v0.1C577.6,283.1,587.7,292.9,601,292.9 M538.4,292h14.4v-15.4L569,249h-15.9l-7.4,14.2l-7.4-14.2
			h-16.1l16.2,27.8V292z"/>
		<path class="st2" d="M450.3,269.9v-12.4h9.4c4.6,0,7.4,2.1,7.4,6.2v0.1c0,3.6-2.6,6.1-7.3,6.1L450.3,269.9L450.3,269.9z
			 M440.8,292h9.5v-13.8h7.4L467,292h11l-10.5-15.4c5.5-2,9.2-6.4,9.2-13.3v-0.1c0-4.1-1.3-7.4-3.7-9.8c-2.8-2.8-7.1-4.4-12.6-4.4
			h-19.7v43H440.8z M397.3,284c-7.6,0-13-6.1-13-13.5v-0.1c0-7.4,5.3-13.4,12.9-13.4s13,6.2,13,13.5v0.1
			C410.2,278,404.9,284,397.3,284 M397.1,292.8c13.3,0,22.9-10,22.9-22.3v-0.1c0-12.2-9.5-22.1-22.8-22.1s-22.9,10-22.9,22.3v0.1
			C374.3,282.9,383.9,292.8,397.1,292.8 M323.6,292h9.5v-16.7h20.5v-8.6H333v-9.2h23.3V249h-32.8v43H323.6z"/>
		<path class="st1" d="M420.3,84.3h-19.1c0.4-2.9,1.4-5.3,3.1-7.1c1.7-1.8,3.9-2.7,6.5-2.7c1.4,0,2.7,0.3,3.8,0.8
			c1.1,0.5,2.1,1.2,2.9,2.1s1.4,1.9,1.9,3.1C419.9,81.7,420.2,83,420.3,84.3 M428.8,87.6c0-2.7-0.4-5.2-1.1-7.6
			c-0.8-2.4-1.9-4.5-3.3-6.4c-1.5-1.8-3.3-3.3-5.6-4.4c-2.2-1.1-4.8-1.6-7.8-1.6c-2.7,0-5.1,0.5-7.3,1.5c-2.2,1-4.1,2.4-5.7,4.2
			c-1.6,1.8-2.9,3.8-3.8,6.2c-0.9,2.3-1.3,4.9-1.3,7.5v0.1c0,2.9,0.5,5.5,1.5,7.9s2.3,4.4,4,6.1s3.7,3,6.1,4
			c2.3,0.9,4.8,1.4,7.5,1.4c3.4,0,6.4-0.6,8.8-1.9c2.5-1.3,4.6-3,6.4-5.1l-5-4.4c-1.5,1.5-3,2.6-4.6,3.3c-1.6,0.7-3.4,1.1-5.5,1.1
			c-2.8,0-5.1-0.8-7.1-2.4c-1.9-1.6-3.2-4-3.6-7h27.3c0-0.4,0.1-0.8,0.1-1.2C428.8,88.3,428.8,87.9,428.8,87.6"/>
		<path class="st1" d="M530,84.3h-19.1c0.4-2.9,1.4-5.3,3.1-7.1c1.7-1.8,3.9-2.7,6.5-2.7c1.4,0,2.7,0.3,3.8,0.8s2.1,1.2,2.9,2.1
			c0.8,0.9,1.4,1.9,1.9,3.1C529.6,81.7,529.9,83,530,84.3 M538.5,87.6c0-2.7-0.4-5.2-1.1-7.6c-0.8-2.4-1.9-4.5-3.3-6.4
			c-1.5-1.8-3.3-3.3-5.6-4.4c-2.2-1.1-4.8-1.6-7.8-1.6c-2.7,0-5.1,0.5-7.3,1.5s-4.1,2.4-5.7,4.2c-1.6,1.8-2.9,3.8-3.8,6.2
			c-0.9,2.3-1.3,4.9-1.3,7.5v0.1c0,2.9,0.5,5.5,1.5,7.9s2.3,4.4,4,6.1s3.7,3,6.1,4c2.3,0.9,4.8,1.4,7.5,1.4c3.4,0,6.4-0.6,8.8-1.9
			c2.5-1.3,4.6-3,6.4-5.1l-5-4.4c-1.5,1.5-3,2.6-4.6,3.3c-1.6,0.7-3.4,1.1-5.5,1.1c-2.8,0-5.1-0.8-7.1-2.4c-1.9-1.6-3.2-4-3.6-7
			h27.3c0-0.4,0.1-0.8,0.1-1.2C538.5,88.3,538.5,87.9,538.5,87.6"/>
		<path class="st1" d="M721.5,92.1c0,1.2-0.2,2.2-0.7,3.2s-1.2,1.8-2.1,2.5c-0.9,0.7-1.9,1.2-3.1,1.6c-1.2,0.4-2.5,0.6-3.9,0.6
			c-2,0-3.7-0.5-5.1-1.4c-1.4-0.9-2.1-2.3-2.1-4.1v-0.1c0-1.8,0.7-3.2,2.3-4.2c1.5-1,3.6-1.6,6.3-1.6c1.6,0,3.2,0.1,4.7,0.4
			s2.8,0.6,3.8,1.1v2H721.5z M729.8,105.5V83.4c0-5-1.3-8.8-4-11.6c-2.7-2.7-6.8-4.1-12.3-4.1c-3.1,0-5.7,0.3-7.8,0.8
			c-2.2,0.6-4.3,1.3-6.3,2.3l2.3,6.8c1.7-0.7,3.4-1.3,5-1.7c1.6-0.4,3.5-0.6,5.6-0.6c3,0,5.2,0.7,6.8,2c1.6,1.4,2.4,3.3,2.4,5.9v0.7
			c-1.5-0.5-3-0.8-4.5-1.1c-1.6-0.3-3.5-0.4-5.7-0.4s-4.2,0.2-6,0.7c-1.9,0.5-3.5,1.2-4.8,2.3c-1.3,1-2.4,2.3-3.1,3.8
			c-0.7,1.5-1.1,3.3-1.1,5.4v0.1c0,1.9,0.4,3.5,1.1,5c0.7,1.4,1.7,2.6,2.9,3.6s2.6,1.7,4.2,2.2c1.6,0.5,3.3,0.7,5.1,0.7
			c2.8,0,5.2-0.5,7.2-1.5s3.6-2.3,4.9-3.8v4.6L729.8,105.5L729.8,105.5z"/>
		<path class="st1" d="M769.2,87.2c0,1.8-0.3,3.5-0.8,5c-0.6,1.5-1.3,2.7-2.3,3.7s-2.1,1.8-3.4,2.4c-1.3,0.6-2.7,0.8-4.1,0.8
			c-1.5,0-2.8-0.3-4.2-0.8c-1.3-0.6-2.5-1.4-3.5-2.4s-1.8-2.3-2.4-3.8c-0.6-1.5-0.9-3.1-0.9-4.9v-0.1c0-1.8,0.3-3.4,0.9-4.9
			c0.6-1.5,1.4-2.7,2.4-3.8c1-1.1,2.1-1.9,3.5-2.4c1.3-0.6,2.7-0.8,4.2-0.8c1.4,0,2.8,0.3,4.1,0.8c1.3,0.6,2.4,1.4,3.4,2.4
			s1.7,2.3,2.3,3.8S769.2,85.3,769.2,87.2L769.2,87.2z M777.8,87.2v-0.1c0-3.1-0.5-5.8-1.5-8.2c-1-2.4-2.3-4.4-3.9-6.1
			c-1.6-1.6-3.5-2.9-5.5-3.7c-2.1-0.8-4.2-1.3-6.4-1.3c-3,0-5.5,0.7-7.5,2s-3.7,3-5.1,5v-6.2h-8.6V117h8.6v-17c1.3,1.7,3,3.3,5,4.6
			c2,1.3,4.5,2,7.6,2c2.2,0,4.3-0.4,6.4-1.3c2.1-0.9,3.9-2.1,5.6-3.7c1.6-1.6,2.9-3.7,3.9-6.1C777.3,93.1,777.8,90.3,777.8,87.2"/>
		<path class="st1" d="M812.5,84.5h-19.1c0.4-2.9,1.4-5.3,3.1-7.1c1.7-1.8,3.9-2.7,6.5-2.7c1.4,0,2.7,0.3,3.8,0.8s2.1,1.2,2.9,2.1
			c0.8,0.9,1.4,1.9,1.9,3.1C812,81.9,812.4,83.2,812.5,84.5 M820.9,87.8c0-2.7-0.4-5.2-1.1-7.6c-0.8-2.4-1.9-4.5-3.3-6.4
			c-1.5-1.8-3.3-3.3-5.6-4.4c-2.2-1.1-4.8-1.6-7.8-1.6c-2.7,0-5.1,0.5-7.3,1.5s-4.1,2.4-5.7,4.2c-1.6,1.8-2.9,3.8-3.8,6.2
			c-0.9,2.3-1.3,4.9-1.3,7.5v0.1c0,2.9,0.5,5.5,1.5,7.9s2.3,4.4,4,6.1s3.7,3,6.1,4c2.3,0.9,4.8,1.4,7.5,1.4c3.4,0,6.4-0.6,8.8-1.9
			c2.5-1.3,4.6-3,6.4-5.1l-5-4.4c-1.5,1.5-3,2.6-4.6,3.3c-1.6,0.7-3.4,1.1-5.5,1.1c-2.8,0-5.1-0.8-7.1-2.4c-1.9-1.6-3.2-4-3.6-7
			h27.3c0-0.4,0.1-0.8,0.1-1.2C820.9,88.5,820.9,88.2,820.9,87.8"/>
		<path class="st1" d="M405,162.6c0,1.6-0.3,3.1-0.8,4.5s-1.3,2.7-2.2,3.8c-1,1.1-2.2,1.9-3.5,2.6c-1.4,0.6-2.9,1-4.7,1
			c-1.6,0-3.1-0.3-4.5-1c-1.4-0.6-2.6-1.5-3.6-2.6s-1.8-2.4-2.3-3.8c-0.6-1.4-0.8-3-0.8-4.6v-0.1c0-1.6,0.2-3.1,0.8-4.6
			c0.5-1.5,1.3-2.7,2.2-3.8c1-1.1,2.2-1.9,3.5-2.5c1.4-0.6,2.9-1,4.6-1s3.2,0.3,4.6,1c1.4,0.6,2.6,1.5,3.6,2.6s1.8,2.3,2.3,3.8
			C404.8,159.4,405,160.9,405,162.6L405,162.6z M413.6,162.5v-0.1c0-2.7-0.5-5.2-1.5-7.5s-2.4-4.4-4.1-6.1c-1.8-1.8-3.9-3.1-6.3-4.2
			c-2.4-1-5.1-1.5-7.9-1.5c-2.9,0-5.5,0.5-7.9,1.6c-2.4,1-4.5,2.4-6.3,4.2c-1.8,1.8-3.1,3.8-4.2,6.2c-1,2.3-1.5,4.9-1.5,7.5v0.1
			c0,2.6,0.5,5.1,1.5,7.5c1,2.3,2.4,4.4,4.1,6.1c1.8,1.7,3.9,3.1,6.3,4.1s5,1.5,7.9,1.5s5.5-0.5,8-1.6c2.4-1,4.5-2.4,6.3-4.2
			c1.8-1.8,3.1-3.8,4.2-6.2C413.1,167.6,413.6,165.1,413.6,162.5"/>
		<path class="st1" d="M485.7,159.8h-19.1c0.4-2.9,1.4-5.3,3.1-7.1c1.7-1.8,3.9-2.7,6.5-2.7c1.4,0,2.7,0.3,3.8,0.8
			c1.1,0.5,2.1,1.2,2.9,2.1s1.4,1.9,1.9,3.1C485.2,157.2,485.5,158.4,485.7,159.8 M494.1,163c0-2.7-0.4-5.2-1.1-7.6
			c-0.8-2.4-1.9-4.5-3.3-6.4c-1.5-1.8-3.3-3.3-5.6-4.4c-2.2-1.1-4.8-1.6-7.8-1.6c-2.7,0-5.1,0.5-7.3,1.5c-2.2,1-4.1,2.4-5.7,4.2
			c-1.6,1.8-2.9,3.8-3.8,6.2c-0.9,2.3-1.3,4.9-1.3,7.5v0.1c0,2.9,0.5,5.5,1.5,7.9s2.3,4.4,4,6.1s3.7,3,6.1,4
			c2.3,0.9,4.8,1.4,7.5,1.4c3.4,0,6.4-0.6,8.8-1.9c2.5-1.3,4.6-3,6.4-5.1l-5-4.4c-1.5,1.5-3,2.6-4.6,3.3c-1.6,0.7-3.4,1.1-5.5,1.1
			c-2.8,0-5.1-0.8-7.1-2.4c-1.9-1.6-3.2-4-3.6-7H494c0-0.4,0.1-0.8,0.1-1.2C494.1,163.8,494.1,163.4,494.1,163"/>
		<path class="st1" d="M670.2,159.8h-19.1c0.4-2.9,1.4-5.3,3.1-7.1c1.7-1.8,3.9-2.7,6.5-2.7c1.4,0,2.7,0.3,3.8,0.8s2.1,1.2,2.9,2.1
			c0.8,0.9,1.4,1.9,1.9,3.1C669.7,157.2,670,158.4,670.2,159.8 M678.6,163c0-2.7-0.4-5.2-1.1-7.6c-0.8-2.4-1.9-4.5-3.3-6.4
			c-1.5-1.8-3.3-3.3-5.6-4.4c-2.2-1.1-4.8-1.6-7.8-1.6c-2.7,0-5.1,0.5-7.3,1.5s-4.1,2.4-5.7,4.2c-1.6,1.8-2.9,3.8-3.8,6.2
			c-0.9,2.3-1.3,4.9-1.3,7.5v0.1c0,2.9,0.5,5.5,1.5,7.9s2.3,4.4,4,6.1s3.7,3,6.1,4c2.3,0.9,4.8,1.4,7.5,1.4c3.4,0,6.4-0.6,8.8-1.9
			c2.5-1.3,4.6-3,6.4-5.1l-5-4.4c-1.5,1.5-3,2.6-4.6,3.3c-1.6,0.7-3.4,1.1-5.5,1.1c-2.8,0-5.1-0.8-7.1-2.4c-1.9-1.6-3.2-4-3.6-7
			h27.3c0-0.4,0.1-0.8,0.1-1.2C678.6,163.8,678.6,163.4,678.6,163"/>
		<path class="st1" d="M351.8,181.3c2-0.4,3.8-0.9,5.5-1.7c1.7-0.7,3.3-1.5,4.8-2.5c1.5-0.9,2.8-1.9,4-3v-20.7h-21v7.5h12.6v9.3
			c-1.5,1.1-3.3,2-5.3,2.7s-4.2,1-6.6,1c-2.5,0-4.8-0.5-6.8-1.3c-2-0.9-3.8-2.1-5.3-3.7s-2.6-3.4-3.4-5.6s-1.2-4.5-1.2-7.1v-0.1
			c0-2.4,0.4-4.6,1.2-6.7c0.8-2.1,1.9-4,3.4-5.5c1.4-1.6,3.1-2.8,5.1-3.8c1.9-0.9,4.1-1.4,6.3-1.4c1.6,0,3,0.1,4.3,0.4
			s2.5,0.6,3.6,1.1s2.1,1,3.1,1.7s1.9,1.4,2.9,2.2l5.5-6.5c-1.3-1.1-2.6-2-3.9-2.9c-1.3-0.8-2.8-1.5-4.3-2.1s-3.1-1-4.9-1.3
			s-3.7-0.5-5.9-0.5c-3.7,0-7.1,0.7-10.3,2c-3.1,1.4-5.8,3.2-8.1,5.5c-2.3,2.3-4,5-5.3,8.1s-1.9,6.4-1.9,9.8v0.1c0,3.6,0.6,7,1.8,10
			c1.2,3.1,2.9,5.8,5.2,8c2.2,2.3,4.9,4.1,8.1,5.4c3.1,1.3,6.6,1.9,10.5,1.9C347.8,181.9,349.8,181.7,351.8,181.3"/>
	</g>
	<polygon class="st1" points="416.8,143.8 425.9,143.8 435.9,171.1 446,143.8 455,143.8 439.7,181.3 432.1,181.3 	"/>
	<g>
		<path class="st1" d="M503.8,181h8.6v-14.2c0-2.4,0.3-4.6,0.9-6.4c0.6-1.9,1.5-3.4,2.6-4.6s2.5-2.1,4-2.7c1.6-0.6,3.3-0.9,5.1-0.9
			h0.5v-9c-3.3-0.1-6,0.6-8.2,2.3c-2.2,1.7-3.8,4-5,6.8v-8.4h-8.6V181H503.8z"/>
		<path class="st1" d="M534.8,143.8h8.6v5.8c0.6-0.9,1.3-1.7,2-2.5s1.6-1.5,2.5-2.1c1-0.6,2-1.1,3.2-1.5s2.4-0.5,3.9-0.5
			c4.2,0,7.5,1.3,9.8,3.9s3.4,6.1,3.4,10.4V181h-8.6v-21.1c0-2.9-0.7-5.1-2.1-6.7c-1.4-1.6-3.3-2.3-5.8-2.3s-4.5,0.8-6,2.4
			s-2.3,3.9-2.3,6.8V181h-8.6L534.8,143.8L534.8,143.8z"/>
		<path class="st1" d="M578.2,181h8.6v-20.9c0-2.9,0.7-5.2,2.2-6.8c1.4-1.6,3.4-2.5,5.8-2.5s4.2,0.8,5.5,2.3s2,3.8,2,6.7V181h8.6
			v-20.9c0-3,0.7-5.3,2.2-6.9s3.4-2.4,5.7-2.4c2.4,0,4.2,0.8,5.5,2.3s2,3.8,2,6.7V181h8.6v-23.7c0-4.6-1.2-8.1-3.5-10.5
			c-2.3-2.5-5.5-3.7-9.6-3.7c-2.8,0-5.3,0.6-7.3,1.8c-2.1,1.2-3.8,2.8-5.3,4.8c-1-2-2.4-3.6-4.2-4.8c-1.9-1.2-4.1-1.8-6.8-1.8
			c-1.4,0-2.7,0.2-3.8,0.5c-1.2,0.4-2.2,0.8-3.1,1.5c-0.9,0.6-1.7,1.3-2.4,2.1c-0.7,0.8-1.4,1.6-2,2.4v-5.7h-8.6V181H578.2z"/>
		<path class="st1" d="M687.5,143.8h8.6v5.8c0.6-0.9,1.3-1.7,2-2.5s1.6-1.5,2.5-2.1c1-0.6,2-1.1,3.2-1.5s2.4-0.5,3.9-0.5
			c4.2,0,7.5,1.3,9.8,3.9s3.4,6.1,3.4,10.4V181h-8.6v-21.1c0-2.9-0.7-5.1-2.1-6.7c-1.4-1.6-3.3-2.3-5.8-2.3s-4.5,0.8-6,2.4
			s-2.3,3.9-2.3,6.8V181h-8.6L687.5,143.8L687.5,143.8z"/>
		<path class="st1" d="M749,181.2c1.2-0.3,2.4-0.8,3.5-1.4v-7c-1.7,0.8-3.5,1.3-5.3,1.3c-1.5,0-2.6-0.4-3.4-1.1
			c-0.8-0.7-1.2-1.9-1.2-3.6v-18.2h10v-7.3h-10v-10.2H734v10.2h-4.7v7.3h4.7v19.6c0,2.1,0.3,3.8,0.8,5.2c0.5,1.4,1.3,2.5,2.2,3.3
			c1,0.8,2.1,1.5,3.4,1.8c1.3,0.4,2.8,0.6,4.3,0.6C746.3,181.6,747.7,181.5,749,181.2"/>
	</g>
	<polygon class="st1" points="318.4,56.2 327.8,56.2 339.5,92.8 351.7,56.1 359,56.1 371.1,92.8 382.9,56.2 392,56.2 374.8,105.9 
		367.3,105.9 355.2,70.5 343.1,105.9 335.6,105.9 	"/>
	<g>
		<path class="st1" d="M456.6,105.5c1.7-0.5,3.2-1.2,4.4-2.2c1.2-1,2.2-2.2,2.9-3.6c0.7-1.4,1.1-3.2,1.1-5.1v-0.1
			c0-1.7-0.4-3.1-1.1-4.3c-0.7-1.2-1.6-2.2-2.7-3s-2.3-1.5-3.7-2.1c-1.4-0.6-2.7-1.1-4.1-1.5c-1.1-0.3-2.1-0.7-3.1-1
			c-1-0.4-1.9-0.7-2.7-1.1c-0.8-0.4-1.4-0.8-1.9-1.3s-0.7-1.1-0.7-1.7v-0.1c0-1.1,0.5-2,1.4-2.7s2.2-1.1,3.8-1.1
			c1.6,0,3.2,0.3,5.1,1c1.8,0.6,3.6,1.5,5.4,2.6l3.4-6.1c-2-1.3-4.2-2.4-6.5-3.1c-2.4-0.8-4.8-1.1-7.1-1.1c-1.8,0-3.6,0.3-5.2,0.8
			s-3,1.3-4.2,2.3s-2.1,2.2-2.8,3.6c-0.7,1.4-1,3-1,4.7v0.1c0,1.8,0.4,3.3,1.1,4.5s1.6,2.2,2.7,3.1c1.1,0.8,2.3,1.5,3.7,2
			c1.4,0.5,2.8,1,4.1,1.3c1.1,0.3,2.1,0.7,3.1,1s1.9,0.7,2.7,1.1c0.8,0.4,1.4,0.8,1.8,1.3s0.7,1.1,0.7,1.8v0.1
			c0,1.2-0.5,2.2-1.5,2.9c-1,0.7-2.4,1.1-4.3,1.1s-3.9-0.4-6-1.2c-2.1-0.8-4.1-1.9-6.2-3.4l-3.8,5.8c2.3,1.9,4.9,3.3,7.6,4.2
			c2.7,0.9,5.5,1.4,8.1,1.4C453.1,106.2,454.9,106,456.6,105.5"/>
		<path class="st1" d="M487.2,106.2c-1.6,0-3-0.2-4.3-0.6s-2.5-1-3.4-1.8c-1-0.8-1.7-2-2.2-3.3c-0.5-1.4-0.8-3.1-0.8-5.2V75.7h-4.7
			v-7.3h4.7V58.2h8.6v10.2h10v7.3h-10v18.2c0,1.6,0.4,2.8,1.2,3.6c0.8,0.7,1.9,1.1,3.4,1.1c1.8,0,3.6-0.4,5.3-1.3v7
			c-1.1,0.6-2.2,1.1-3.5,1.4C490.3,106,488.8,106.2,487.2,106.2"/>
		<path class="st1" d="M546.8,105.5h8.6V91.3c0-2.4,0.3-4.6,0.9-6.4c0.6-1.9,1.5-3.4,2.6-4.6s2.5-2.1,4-2.7c1.6-0.6,3.3-0.9,5.1-0.9
			h0.5v-9c-3.3-0.1-6,0.6-8.2,2.3c-2.2,1.7-3.8,4-5,6.8v-8.4h-8.6v37.1H546.8z"/>
		<path class="st1" d="M577,68.3h8.6v5.8c0.6-0.9,1.3-1.7,2-2.5s1.6-1.5,2.5-2.1c1-0.6,2-1.1,3.2-1.5s2.4-0.5,3.9-0.5
			c4.2,0,7.5,1.3,9.8,3.9s3.4,6.1,3.4,10.4v23.7h-8.6V84.4c0-2.9-0.7-5.1-2.1-6.7c-1.4-1.6-3.3-2.3-5.8-2.3s-4.5,0.8-6,2.4
			s-2.3,3.9-2.3,6.8v20.9H577V68.3z"/>
		<path class="st1" d="M675.6,105.8c1.9-0.4,3.7-1,5.2-1.8c1.6-0.8,3.1-1.7,4.5-2.7c1.4-1.1,2.7-2.3,4-3.6l-5.6-5.6
			c-2.1,2-4.2,3.5-6.4,4.7s-4.7,1.7-7.7,1.7c-2.3,0-4.5-0.5-6.5-1.4s-3.7-2.2-5.2-3.8c-1.5-1.6-2.6-3.5-3.4-5.6
			c-0.8-2.1-1.2-4.4-1.2-6.8v-0.1c0-2.4,0.4-4.7,1.2-6.8c0.8-2.1,1.9-4,3.4-5.5c1.5-1.6,3.2-2.8,5.2-3.7c2-0.9,4.2-1.4,6.5-1.4
			c2.8,0,5.3,0.6,7.5,1.7s4.3,2.6,6.3,4.4l5.6-6.4c-1.2-1.1-2.4-2.2-3.7-3.1s-2.7-1.7-4.3-2.4c-1.6-0.7-3.3-1.2-5.1-1.6
			c-1.9-0.4-3.9-0.6-6.2-0.6c-3.8,0-7.2,0.7-10.3,2s-5.8,3.2-8.1,5.5s-4,5-5.3,8.1s-1.9,6.4-1.9,9.9V81c0,3.5,0.6,6.8,1.9,9.9
			c1.3,3.1,3,5.8,5.3,8.1c2.2,2.3,4.9,4.1,7.9,5.4s6.4,2,10,2C671.6,106.4,673.7,106.2,675.6,105.8"/>
	</g>
	<rect x="318.4" y="213.8" class="st2" width="437.1" height="3"/>
</g>
</svg>
